<?xml version="1.0" encoding="UTF-8"?>
<svg xmlns="http://www.w3.org/2000/svg" version="1.1" xmlns:xlink="http://www.w3.org/1999/xlink" viewBox="0 0 853 1280">
  <defs>
    <style>
      .cls-1 {
        fill: #b91bd6;
      }

      .cls-2 {
        fill: url(#_Безымянный_градиент_22);
      }

      .cls-3 {
        fill: #6375fa;
      }

      .cls-4 {
        fill: url(#_Безымянный_градиент_15);
      }

      .cls-5 {
        fill: url(#_Безымянный_градиент_4);
      }

      .cls-6 {
        fill: url(#_Безымянный_градиент_12);
      }

      .cls-7 {
        fill: url(#_Безымянный_градиент_31);
      }

      .cls-8 {
        fill: url(#_Безымянный_градиент_21);
      }

      .cls-9 {
        fill: #2919cd;
      }

      .cls-10 {
        fill: url(#_Безымянный_градиент_5);
      }

      .cls-11 {
        fill: #77b50c;
      }

      .cls-12 {
        fill: #595ef9;
      }

      .cls-13 {
        fill: #3229e7;
      }

      .cls-14 {
        fill: #12873d;
      }

      .cls-15 {
        fill: url(#_Безымянный_градиент_14);
      }

      .cls-16 {
        fill: #aebc03;
      }

      .cls-17 {
        fill: url(#_Безымянный_градиент_7);
      }

      .cls-18 {
        fill: url(#_Безымянный_градиент_24);
      }

      .cls-19 {
        fill: #23642f;
      }

      .cls-20 {
        fill: #12384b;
      }

      .cls-21 {
        fill: url(#_Безымянный_градиент_17);
      }

      .cls-22 {
        fill: #3b1aa0;
      }

      .cls-23 {
        fill: url(#_Безымянный_градиент_32);
      }

      .cls-24 {
        fill: url(#_Безымянный_градиент_20);
      }

      .cls-25 {
        fill: #c5a5f6;
      }

      .cls-26 {
        fill: #05165b;
      }

      .cls-27 {
        fill: url(#_Безымянный_градиент_23);
      }

      .cls-28 {
        fill: url(#_Безымянный_градиент_16);
      }

      .cls-29 {
        fill: #187c71;
      }

      .cls-30 {
        fill: url(#_Безымянный_градиент_18);
      }

      .cls-31 {
        fill: #724069;
      }

      .cls-32 {
        fill: #941ad0;
      }

      .cls-33 {
        fill: #3e3cf7;
      }

      .cls-34 {
        fill: #2719b1;
      }

      .cls-35 {
        fill: url(#_Безымянный_градиент_9);
      }

      .cls-36 {
        fill: url(#_Безымянный_градиент_11);
      }

      .cls-37 {
        fill: url(#_Безымянный_градиент_10);
      }

      .cls-38 {
        fill: url(#_Безымянный_градиент_2);
      }

      .cls-39 {
        fill: #8a4d3a;
      }

      .cls-40 {
        fill: url(#_Безымянный_градиент_19);
      }

      .cls-41 {
        fill: #b3613c;
      }

      .cls-42 {
        fill: #4551f9;
      }

      .cls-43 {
        fill: #fcca26;
      }

      .cls-44 {
        fill: url(#_Безымянный_градиент_25);
      }

      .cls-45 {
        fill: #4c2658;
      }

      .cls-46 {
        fill: #feb01c;
      }

      .cls-47 {
        fill: url(#_Безымянный_градиент);
      }

      .cls-48 {
        fill: #583d3d;
      }

      .cls-49 {
        fill: url(#_Безымянный_градиент_29);
      }

      .cls-50 {
        fill: #864f60;
      }

      .cls-51 {
        fill: url(#_Безымянный_градиент_28);
      }

      .cls-52 {
        fill: #7cce06;
      }

      .cls-53 {
        fill: #fbe165;
      }

      .cls-54 {
        fill: url(#_Безымянный_градиент_13);
      }

      .cls-55 {
        fill: url(#_Безымянный_градиент_8);
      }

      .cls-56 {
        fill: url(#_Безымянный_градиент_3);
      }

      .cls-57 {
        fill: url(#_Безымянный_градиент_30);
      }

      .cls-58 {
        fill: url(#_Безымянный_градиент_27);
      }

      .cls-59 {
        fill: #43a616;
      }

      .cls-60 {
        fill: #d47f1d;
      }

      .cls-61 {
        fill: url(#_Безымянный_градиент_32-2);
      }

      .cls-62 {
        fill: #c641f1;
      }

      .cls-63 {
        fill: url(#_Безымянный_градиент_6);
      }

      .cls-64 {
        fill: url(#_Безымянный_градиент_26);
      }
    </style>
    <linearGradient id="_Безымянный_градиент" data-name="Безымянный градиент" x1="1445.4" y1="250.5" x2="1309.2" y2="297.5" gradientTransform="translate(-199.9 837.5) scale(.6 -.6)" gradientUnits="userSpaceOnUse">
      <stop offset="0" stop-color="#2725ff"/>
      <stop offset="1" stop-color="#4a5efe"/>
    </linearGradient>
    <linearGradient id="_Безымянный_градиент_2" data-name="Безымянный градиент 2" x1="1343.8" y1="149.3" x2="1310.9" y2="309.4" gradientTransform="translate(-199.9 837.5) scale(.6 -.6)" gradientUnits="userSpaceOnUse">
      <stop offset="0" stop-color="#dc8c14"/>
      <stop offset="1" stop-color="#ffd636"/>
    </linearGradient>
    <linearGradient id="_Безымянный_градиент_3" data-name="Безымянный градиент 3" x1="1091.4" y1="102.5" x2="1084.1" y2="255.5" gradientTransform="translate(-199.9 837.5) scale(.6 -.6)" gradientUnits="userSpaceOnUse">
      <stop offset="0" stop-color="#2625ff"/>
      <stop offset="1" stop-color="#4b5ffe"/>
    </linearGradient>
    <linearGradient id="_Безымянный_градиент_4" data-name="Безымянный градиент 4" x1="1350.3" y1="152" x2="1374.1" y2="83.3" gradientTransform="translate(-199.9 837.5) scale(.6 -.6)" gradientUnits="userSpaceOnUse">
      <stop offset="0" stop-color="#c27027"/>
      <stop offset="1" stop-color="#a64d49"/>
    </linearGradient>
    <linearGradient id="_Безымянный_градиент_5" data-name="Безымянный градиент 5" x1="693" y1="889.7" x2="733.9" y2="890.8" gradientTransform="translate(-199.9 837.5) scale(.6 -.6)" gradientUnits="userSpaceOnUse">
      <stop offset="0" stop-color="#1b10c3"/>
      <stop offset="1" stop-color="#4639ff"/>
    </linearGradient>
    <linearGradient id="_Безымянный_градиент_6" data-name="Безымянный градиент 6" x1="786.2" y1="838.5" x2="733.6" y2="864.5" gradientTransform="translate(-199.9 837.5) scale(.6 -.6)" gradientUnits="userSpaceOnUse">
      <stop offset="0" stop-color="#a475f9"/>
      <stop offset="1" stop-color="#5a49ff"/>
    </linearGradient>
    <linearGradient id="_Безымянный_градиент_7" data-name="Безымянный градиент 7" x1="720" y1="824.5" x2="779.8" y2="699.5" gradientTransform="translate(-199.9 837.5) scale(.6 -.6)" gradientUnits="userSpaceOnUse">
      <stop offset="0" stop-color="#1e0bc6"/>
      <stop offset="1" stop-color="#414aff"/>
    </linearGradient>
    <linearGradient id="_Безымянный_градиент_8" data-name="Безымянный градиент 8" x1="556" y1="506.3" x2="681.8" y2="506.9" gradientTransform="translate(-199.9 837.5) scale(.6 -.6)" gradientUnits="userSpaceOnUse">
      <stop offset="0" stop-color="#2f2fff"/>
      <stop offset="1" stop-color="#4859fe"/>
    </linearGradient>
    <linearGradient id="_Безымянный_градиент_9" data-name="Безымянный градиент 9" x1="893.5" y1="277.5" x2="889.6" y2="316.2" gradientTransform="translate(-199.9 837.5) scale(.6 -.6)" gradientUnits="userSpaceOnUse">
      <stop offset="0" stop-color="#a69c01"/>
      <stop offset="1" stop-color="#6d611c"/>
    </linearGradient>
    <linearGradient id="_Безымянный_градиент_10" data-name="Безымянный градиент 10" x1="990.3" y1="298.7" x2="992.4" y2="220.9" gradientTransform="translate(-199.9 837.5) scale(.6 -.6)" gradientUnits="userSpaceOnUse">
      <stop offset="0" stop-color="#97b502"/>
      <stop offset="1" stop-color="#ebe204"/>
    </linearGradient>
    <linearGradient id="_Безымянный_градиент_11" data-name="Безымянный градиент 11" x1="963.9" y1="268.6" x2="978.2" y2="373.7" gradientTransform="translate(-199.9 837.5) scale(.6 -.6)" gradientUnits="userSpaceOnUse">
      <stop offset="0" stop-color="#7aa100"/>
      <stop offset="1" stop-color="#0e5b2d"/>
    </linearGradient>
    <linearGradient id="_Безымянный_градиент_12" data-name="Безымянный градиент 12" x1="1061.9" y1="280.5" x2="1064.6" y2="373" gradientTransform="translate(-199.9 837.5) scale(.6 -.6)" gradientUnits="userSpaceOnUse">
      <stop offset="0" stop-color="#b69b00"/>
      <stop offset="1" stop-color="#633a36"/>
    </linearGradient>
    <linearGradient id="_Безымянный_градиент_13" data-name="Безымянный градиент 13" x1="1506.8" y1="552.2" x2="1339.6" y2="502.9" gradientTransform="translate(-199.9 837.5) scale(.6 -.6)" gradientUnits="userSpaceOnUse">
      <stop offset="0" stop-color="#2520f3"/>
      <stop offset="1" stop-color="#475bff"/>
    </linearGradient>
    <linearGradient id="_Безымянный_градиент_14" data-name="Безымянный градиент 14" x1="1260.1" y1="455.1" x2="1306.4" y2="521.7" gradientTransform="translate(-199.9 837.5) scale(.6 -.6)" gradientUnits="userSpaceOnUse">
      <stop offset="0" stop-color="#995b59"/>
      <stop offset="1" stop-color="#593088"/>
    </linearGradient>
    <linearGradient id="_Безымянный_градиент_15" data-name="Безымянный градиент 15" x1="1269.1" y1="541.4" x2="1292.9" y2="580.9" gradientTransform="translate(-199.9 837.5) scale(.6 -.6)" gradientUnits="userSpaceOnUse">
      <stop offset="0" stop-color="#5b3089"/>
      <stop offset="1" stop-color="#361ba1"/>
    </linearGradient>
    <linearGradient id="_Безымянный_градиент_16" data-name="Безымянный градиент 16" x1="1413.6" y1="699.9" x2="1257.3" y2="683.3" gradientTransform="translate(-199.9 837.5) scale(.6 -.6)" gradientUnits="userSpaceOnUse">
      <stop offset="0" stop-color="#ea900d"/>
      <stop offset="1" stop-color="#ffe14e"/>
    </linearGradient>
    <linearGradient id="_Безымянный_градиент_17" data-name="Безымянный градиент 17" x1="781.6" y1="498.8" x2="752.7" y2="561.5" gradientTransform="translate(-199.9 837.5) scale(.6 -.6)" gradientUnits="userSpaceOnUse">
      <stop offset="0" stop-color="#834b5a"/>
      <stop offset="1" stop-color="#774067"/>
    </linearGradient>
    <linearGradient id="_Безымянный_градиент_18" data-name="Безымянный градиент 18" x1="712.8" y1="180.4" x2="819.6" y2="306.4" gradientTransform="translate(-199.9 837.5) scale(.6 -.6)" gradientUnits="userSpaceOnUse">
      <stop offset="0" stop-color="#1f19e8"/>
      <stop offset="1" stop-color="#495bff"/>
    </linearGradient>
    <linearGradient id="_Безымянный_градиент_19" data-name="Безымянный градиент 19" x1="1123.3" y1="847.2" x2="1089.4" y2="707.9" gradientTransform="translate(-199.9 837.5) scale(.6 -.6)" gradientUnits="userSpaceOnUse">
      <stop offset="0" stop-color="#2827ff"/>
      <stop offset="1" stop-color="#5063fe"/>
    </linearGradient>
    <linearGradient id="_Безымянный_градиент_20" data-name="Безымянный градиент 20" x1="899.2" y1="-466.2" x2="904.4" y2="-258.2" gradientTransform="translate(-199.9 837.5) scale(.6 -.6)" gradientUnits="userSpaceOnUse">
      <stop offset="0" stop-color="#f38707"/>
      <stop offset="1" stop-color="#ffcb29"/>
    </linearGradient>
    <linearGradient id="_Безымянный_градиент_21" data-name="Безымянный градиент 21" x1="1288.7" y1="-431.1" x2="1282.8" y2="-245.3" gradientTransform="translate(-199.9 837.5) scale(.6 -.6)" gradientUnits="userSpaceOnUse">
      <stop offset="0" stop-color="#f98f08"/>
      <stop offset="1" stop-color="#ffcf2e"/>
    </linearGradient>
    <linearGradient id="_Безымянный_градиент_22" data-name="Безымянный градиент 22" x1="699.5" y1="-433.7" x2="720.9" y2="-241.2" gradientTransform="translate(-199.9 837.5) scale(.6 -.6)" gradientUnits="userSpaceOnUse">
      <stop offset="0" stop-color="#f58e0b"/>
      <stop offset="1" stop-color="#ffcc2b"/>
    </linearGradient>
    <linearGradient id="_Безымянный_градиент_23" data-name="Безымянный градиент 23" x1="1096.8" y1="-431.5" x2="1084.6" y2="-241.6" gradientTransform="translate(-199.9 837.5) scale(.6 -.6)" gradientUnits="userSpaceOnUse">
      <stop offset="0" stop-color="#f6920a"/>
      <stop offset="1" stop-color="#ffca2d"/>
    </linearGradient>
    <linearGradient id="_Безымянный_градиент_24" data-name="Безымянный градиент 24" x1="587" y1="329.4" x2="685.2" y2="455.1" gradientTransform="translate(-199.9 837.5) scale(.6 -.6)" gradientUnits="userSpaceOnUse">
      <stop offset="0" stop-color="#e6971b"/>
      <stop offset="1" stop-color="#ffdf49"/>
    </linearGradient>
    <linearGradient id="_Безымянный_градиент_25" data-name="Безымянный градиент 25" x1="584.4" y1="301.9" x2="513.6" y2="279.6" gradientTransform="translate(-199.9 837.5) scale(.6 -.6)" gradientUnits="userSpaceOnUse">
      <stop offset="0" stop-color="#cf7c22"/>
      <stop offset="1" stop-color="#b35a44"/>
    </linearGradient>
    <linearGradient id="_Безымянный_градиент_26" data-name="Безымянный градиент 26" x1="532.8" y1="389.2" x2="647" y2="349.3" gradientTransform="translate(-199.9 837.5) scale(.6 -.6)" gradientUnits="userSpaceOnUse">
      <stop offset="0" stop-color="#1e1ba1"/>
      <stop offset="1" stop-color="#383fff"/>
    </linearGradient>
    <linearGradient id="_Безымянный_градиент_27" data-name="Безымянный градиент 27" x1="1397" y1="-200.1" x2="1388.5" y2="-66.4" gradientTransform="translate(-199.9 837.5) scale(.6 -.6)" gradientUnits="userSpaceOnUse">
      <stop offset="0" stop-color="#fe9406"/>
      <stop offset="1" stop-color="#fecc2f"/>
    </linearGradient>
    <linearGradient id="_Безымянный_градиент_28" data-name="Безымянный градиент 28" x1="1123.7" y1="-215.4" x2="1129.9" y2="-71.7" gradientTransform="translate(-199.9 837.5) scale(.6 -.6)" gradientUnits="userSpaceOnUse">
      <stop offset="0" stop-color="#fe9305"/>
      <stop offset="1" stop-color="#fec82b"/>
    </linearGradient>
    <linearGradient id="_Безымянный_градиент_29" data-name="Безымянный градиент 29" x1="979.1" y1="-198.9" x2="981.9" y2="-66" gradientTransform="translate(-199.9 837.5) scale(.6 -.6)" gradientUnits="userSpaceOnUse">
      <stop offset="0" stop-color="#fe9909"/>
      <stop offset="1" stop-color="#fecc31"/>
    </linearGradient>
    <linearGradient id="_Безымянный_градиент_30" data-name="Безымянный градиент 30" x1="741.7" y1="-198" x2="740.3" y2="-66.5" gradientTransform="translate(-199.9 837.5) scale(.6 -.6)" gradientUnits="userSpaceOnUse">
      <stop offset="0" stop-color="#ff990b"/>
      <stop offset="1" stop-color="#fec92f"/>
    </linearGradient>
    <linearGradient id="_Безымянный_градиент_31" data-name="Безымянный градиент 31" x1="1527.3" y1="80.9" x2="1501" y2="38.8" gradientTransform="translate(-199.9 837.5) scale(.6 -.6)" gradientUnits="userSpaceOnUse">
      <stop offset="0" stop-color="#ffa102"/>
      <stop offset="1" stop-color="#c8642c"/>
    </linearGradient>
    <linearGradient id="_Безымянный_градиент_32" data-name="Безымянный градиент 32" x1="813.8" y1="111.1" x2="852" y2="106.2" gradientTransform="translate(-199.9 837.5) scale(.6 -.6)" gradientUnits="userSpaceOnUse">
      <stop offset="0" stop-color="#130d96"/>
      <stop offset="1" stop-color="#2827ff"/>
    </linearGradient>
    <linearGradient id="_Безымянный_градиент_32-2" data-name="Безымянный градиент 32" x1="1032.6" y1="806.4" x2="1070.8" y2="801.5" gradientTransform="translate(-78.2 972.9) rotate(-13) scale(.6 -.6)" xlink:href="#_Безымянный_градиент_32"/>
  </defs>
  <!-- Generator: Adobe Illustrator 28.7.1, SVG Export Plug-In . SVG Version: 1.2.0 Build 142)  -->
  <g>
    <g id="_Слой_1" data-name="Слой_1">
      <path class="cls-26" d="M0,0h853v1280H0V0Z"/>
      <path class="cls-26" d="M246.8,254.8l4.5-2,2.4,6.1c1.4,3.4,3.2,6.7,4.4,10.1,29.5,1.6,55.5,1.3,77,25.2,2.3,2.6,4.5,5.4,6.4,8.2l.7.2.2.4c2.8,4.3,6.1,8.9,9.8,12.5,9.6,9.6,19.8,16.1,16.4,31.6-1.7,7.9-6.2,14.6-11.5,20.5,28.2-5.3,50.8-8.3,79.5-7.5,3.6.1,9.3-.4,12.6.9h.5c44.8,4.2,89.4,19,125,46.9l.5.3,2.9-3.9c2.8-2.8,5.8-5.4,9-7.8,15.6-11.7,28.5-15.3,47.5-16.5,3.4-.2,6-1.4,9.5-.9.9.1.8,0,1.6-.3-.3-1.4-.9-2.5-1.5-3.8,4.2,3.3,12.3,8.3,14.5,13.2,2,1.1,4,2.2,5.7,3.6,4.4,3.6,25.6,24.2,27.1,28.1,0,.2,0,.3.1.5l-2.2-1.4.3,2c14.5,6.6,38.2,46.3,45.5,60.6,4.8,9.4,9,19.1,12.6,29.1,14.8,39.9,18.2,80.5,13.5,122.7,0,1.4-.2,2.3-1,3.6-1.9,3.3-1.5,10.9-2.3,14.9-1.1,6.2-3.1,12.3-5,18.3-14.2,43.2-39,82.1-72.1,113.2-3.2,3.5-7.1,7.4-11.7,9-7.9,8.7-27.8,23.8-38.6,27.6h-.6c-1.3,1.1-2.5,2.1-4.1,2.8-11,7.3-24.6,12.5-36.9,17.2-68.1,26.4-144.6,30.1-215.9,15.9-17.9-3.6-38.8-8.7-55.7-15.7-2.8-6.2-4.8-12.8-5.5-19.6-4.9-11.8,2.3-43.5,4.7-56.5,2.2-7.5,4.8-15.2,7.7-22.4,4.1-11,11.5-21.7,14.2-33,.4-1.9,1.1-3.3,2.2-4.9l.4-.6-5.4-3.2c2.6-5.9,5.5-11.8,8.9-17.2v-.4c2-.9,4.1-2.8,6-4.1-8.6-3.7-16.8-9.4-24.3-15-1.5-2.4-3.6-4-5-6.6l-.6-.8c-10.4-5-29.7-26-35.6-36.1-4.8-5.3-11.3-14-15.1-20-3-4.6-5.9-9.6-9.5-13.7l-.4-.8c.2-.1.6-.4.7-.6.1-.2.2-.4.3-.6l-2.7-6.7c-1.6-2.7-2.8-5.6-4.1-8.4-.9-1.8-1.7-3.7-2.5-5.6-1.1-1.5-2.3-3-3.5-4.5-3.4-2.3-7.1-4.2-11-5.5-.5-2.2-1.5-4.6-2.3-6.8-2.3.5-4.6.1-7,0-4.5.2-9.1.6-13.5,1.5-19.1.8-39.3,11.7-54.2,23-5.3,4.5-11.9,9.3-16.1,14.8-13.7,13.5-26.4,36.3-26.6,56.1,0,5.3.7,10.8,0,16.1,0,1.5.4,3.3-.4,4.6-18.2-39.5-30.4-82.5-27.2-126.4-.8-4-.7-8.7-.2-12.7,2.1-11.8,2.6-23.6,5.1-35.3,8.9-42.5,30.8-81.3,62.5-110.9,1.2-1.4,2.9-2.6,4.2-3.9,1.5-16.4,8.1-15.8,17-26.6l.4-.5c1.7-4.9,2.9-10.1,4.5-15.1,7.4-23.1,22.8-40.1,44.1-51.1,3.9-1.7,6.9-3.2,9.7-6.5l.9-2.4c.5-5.5-.1-10.1-1.4-15.4,3.2,0,6.3-.4,9.4-1.4Z"/>
      <path class="cls-9" d="M660.1,550.8c26.6-2,53.9,8.5,74,25.7,14.2,12.1,24.6,34.3,25.9,53,.1,1.4.2,2.4.8,3.7l.8.3c0,1.4-.2,2.3-1,3.6-1.9,3.3-1.5,10.9-2.3,14.9-1.1,6.2-3.1,12.3-5,18.3-14.2,43.2-39,82.1-72.1,113.2-3.2,3.5-7.1,7.4-11.7,9-7.9,8.7-27.8,23.8-38.6,27.6h-.6c-1.3,1.1-2.5,2.1-4.1,2.8-11,7.3-24.6,12.5-36.9,17.2-68.1,26.4-144.6,30.1-215.9,15.9-17.9-3.6-38.8-8.7-55.7-15.7-2.8-6.2-4.8-12.8-5.5-19.6-4.9-11.8,2.3-43.5,4.7-56.5,2.2-7.5,4.8-15.2,7.7-22.4,4.1-11,11.5-21.7,14.2-33,.4-1.9,1.1-3.3,2.2-4.9l.4-.6-5.4-3.2c2.6-5.9,5.5-11.8,8.9-17.2v-.4c2-.9,4.1-2.8,6-4.1,2.4,1.1,4.6,2.2,6.8,3.6,19,8.9,39.2,14.9,59.9,18.1,1.6-1.1,2.6-.7,3.4-2.6,5.5.4,11.6.5,17,1.7,20.2.6,34.2,0,54.4-2.1,1.8-.7,4.2-.7,6.1-1.1l18-4c14-4.7,27.6-9.5,40.8-16.4,5.6-2.9,10.3-7.5,16.1-10,2.3-1,4.8-1,7.2-1.1-.9-.1-1.8-.3-2.7-.6,5.5-4.1,10.5-8.7,15.2-13.7l-.3-.4c0-3.7,6.4-9.9,8.7-12.8,2.8-3,5.1-6.2,8.1-9.1.8-3.4,1.4-6.9,2-10.3,1.3-5.8,1.6-12,2.1-18,1.1-4.2,3.8-9.1,6.7-12.4l.4-3.8c2.1-3.8,5.7-9.7,10-11.2l.3-2.2c3.7-2.2,5.8-3.8,8-7.5l1,.2,1.1-2.2c.1-1.8,0-3.5.3-5.3l1.1.6c3.7-1.3,7.5-2.5,11.2-3.7,1.8-.6,3.6-1.2,5.5-1.7l.7.3Z"/>
      <path class="cls-47" d="M660.1,550.8c26.6-2,53.9,8.5,74,25.7,14.2,12.1,24.6,34.3,25.9,53,.1,1.4.2,2.4.8,3.7l.8.3c0,1.4-.2,2.3-1,3.6-1.9,3.3-1.5,10.9-2.3,14.9-1.1,6.2-3.1,12.3-5,18.3-14.2,43.2-39,82.1-72.1,113.2-3.2,3.5-7.1,7.4-11.7,9,3.2-5.2,5.5-10.6,7.8-16.2,1.8-6.6,2.5-13.4,4.3-19.9.3-8.5-.9-17.2-1.9-25.6-1,0-2.2-.1-3.2.3-2.5,1.1-5.2,3.6-7.4,5.3-6.8,5.2-13.6,11.1-21.4,14.7-.7-4.1-1.6-8.2-2.5-12.3-1.2-2.6-1.9-5.7-2.9-8.5-2.5-7.1-5.2-13.5-9.1-19.9-8-16.2-24-33.4-40-41.9-3.9-2.1-8.2-3.1-12.6-3.8-.9-.1-1.8-.3-2.7-.6,5.5-4.1,10.5-8.7,15.2-13.7l-.3-.4c0-3.7,6.4-9.9,8.7-12.8,2.8-3,5.1-6.2,8.1-9.1.8-3.4,1.4-6.9,2-10.3,1.3-5.8,1.6-12,2.1-18,1.1-4.2,3.8-9.1,6.7-12.4l.4-3.8c2.1-3.8,5.7-9.7,10-11.2l.3-2.2c3.7-2.2,5.8-3.8,8-7.5l1,.2,1.1-2.2c.1-1.8,0-3.5.3-5.3l1.1.6c3.7-1.3,7.5-2.5,11.2-3.7,1.8-.6,3.6-1.2,5.5-1.7l.7.3Z"/>
      <path class="cls-9" d="M660.1,550.8c26.6-2,53.9,8.5,74,25.7,14.2,12.1,24.6,34.3,25.9,53,.1,1.4.2,2.4.8,3.7l.8.3c0,1.4-.2,2.3-1,3.6-1.9,3.3-1.5,10.9-2.3,14.9-1.1,6.2-3.1,12.3-5,18.3-14.2,43.2-39,82.1-72.1,113.2-3.2,3.5-7.1,7.4-11.7,9,3.2-5.2,5.5-10.6,7.8-16.2,1.8-6.6,2.5-13.4,4.3-19.9.3-8.5-.9-17.2-1.9-25.6-.9-5.1-1.7-10.5-3.7-15.4-1.1-5.5-4.4-11.3-6.5-16.5l1,.2c2.5,3.2,3.2,7.3,5.4,10.7,1-.2,1.2-.8,1.9-1.6-.6-2.5-1.6-4.7-2.4-7.1-.7-1.9-2-3.1-1.5-5,.8,1.5,1.8,3.1,2.4,4.8l1-.5c3.9-7.5,10.3-13.3,15.4-19.9,9.7-12.6,18.9-26.5,26-40.8,3.5-7,7-15.4,9.1-23,2.6-9.3,2.6-23.2,7.8-30.8-16.2-17.4-42.5-29.4-66.2-30.7-3.6.1-7.2,0-10.9,0l-4.3.9-.3-3.6c1.8-.6,3.6-1.2,5.5-1.7l.7.3Z"/>
      <path class="cls-22" d="M669.5,698.8l1,.2c2.5,3.2,3.2,7.3,5.4,10.7,1-.2,1.2-.8,1.9-1.6-.6-2.5-1.6-4.7-2.4-7.1-.7-1.9-2-3.1-1.5-5,.8,1.5,1.8,3.1,2.4,4.8,5.1,15.7,10,25.5,10.1,42.7-2.7,5.5-3.1,7.2-4.7,12.9.3-8.5-.9-17.2-1.9-25.6-.9-5.1-1.7-10.5-3.7-15.4-1.1-5.5-4.4-11.3-6.5-16.5Z"/>
      <path class="cls-34" d="M681.6,756.4c1.6-5.7,2-7.4,4.7-12.9.9,19.4-2.8,22.9-7.3,40.4.2-.1.5-.3.7-.4.2,0,1.2,0,1.5,0-3.2,3.5-7.1,7.4-11.7,9,3.2-5.2,5.5-10.6,7.8-16.2,1.8-6.6,2.5-13.4,4.3-19.9Z"/>
      <path class="cls-33" d="M659.4,550.5l.7.3c-.5,1.4-.8,1.6-.3,3,3.1,1.2,6.4.2,9.6,1.1-3.6.1-7.2,0-10.9,0l-4.3.9-.3-3.6c1.8-.6,3.6-1.2,5.5-1.7Z"/>
      <path class="cls-38" d="M620.1,649l.4-.7c-.9-1.2-2.9-1.3-4.4-1.6l.3-.9c.7-.5,1.4-1.1,2.2-1.4,1.2-.5,2.6-.2,3.8.2,1.5.6,2.9,1,4.4,1.4,17.3,10.4,31.9,23.6,42.2,41.2,1.6,2.7,3.8,5.9,4.8,8.8-.5,2,.8,3.2,1.5,5,.9,2.4,1.8,4.6,2.4,7.1-.6.8-.9,1.4-1.9,1.6-2.2-3.4-2.9-7.5-5.4-10.7l-1-.2c2.1,5.2,5.5,11,6.5,16.5,1.9,4.9,2.7,10.2,3.7,15.4-1,0-2.2-.1-3.2.3-2.5,1.1-5.2,3.6-7.4,5.3-6.8,5.2-13.6,11.1-21.4,14.7-.7-4.1-1.6-8.2-2.5-12.3-1.2-2.6-1.9-5.7-2.9-8.5-2.5-7.1-5.2-13.5-9.1-19.9-8-16.2-24-33.4-40-41.9-3.9-2.1-8.2-3.1-12.6-3.8-.9-.1-1.8-.3-2.7-.6,5.5-4.1,10.5-8.7,15.2-13.7.5-.3,1.1-.6,1.6-.9,8.1-4.3,16.8-3,25.3-.5Z"/>
      <path class="cls-13" d="M620.1,649l.4-.7c-.9-1.2-2.9-1.3-4.4-1.6l.3-.9c.7-.5,1.4-1.1,2.2-1.4,1.2-.5,2.6-.2,3.8.2,1.5.6,2.9,1,4.4,1.4,17.3,10.4,31.9,23.6,42.2,41.2,1.6,2.7,3.8,5.9,4.8,8.8-.5,2,.8,3.2,1.5,5,.9,2.4,1.8,4.6,2.4,7.1-.6.8-.9,1.4-1.9,1.6-2.2-3.4-2.9-7.5-5.4-10.7l-1-.2c-2.8-3.9-5-8.4-7.7-12.3-10.9-15.9-24.3-29-41.7-37.5Z"/>
      <path class="cls-60" d="M676.1,715.4c1.9,4.9,2.7,10.2,3.7,15.4-1,0-2.2-.1-3.2.3-2.5,1.1-5.2,3.6-7.4,5.3-6.8,5.2-13.6,11.1-21.4,14.7-.7-4.1-1.6-8.2-2.5-12.3,1,.9,1.3,1.5,1.8,2.7.2.6.6.8,1.1,1.2,4.1-.3,20.9-8,24.5-10.6,9.5-6.9,1.8-8,3.4-16.2,0-.1,0-.3.1-.4Z"/>
      <path class="cls-42" d="M653.9,552.1l.3,3.6,4.3-.9c-1.8,24.5-10.6,46.9-23.8,67.5-4.1,6.5-9.1,12.3-13,18.9-.5.3-1.1.7-1.7.9,2.4,1.1,4.8,2.1,6.8,3.8-1.5-.4-2.9-.8-4.4-1.4-1.2-.5-2.6-.7-3.8-.2-.8.3-1.5.9-2.2,1.4l-.3.9c1.5.4,3.4.4,4.4,1.6l-.4.7c-8.5-2.6-17.2-3.9-25.3.5-.6.3-1.1.6-1.6.9l-.3-.4c0-3.7,6.4-9.9,8.7-12.8,2.8-3,5.1-6.2,8.1-9.1.8-3.4,1.4-6.9,2-10.3,1.3-5.8,1.6-12,2.1-18,1.1-4.2,3.8-9.1,6.7-12.4l.4-3.8c2.1-3.8,5.7-9.7,10-11.2l.3-2.2c3.7-2.2,5.8-3.8,8-7.5l1,.2,1.1-2.2c.1-1.8,0-3.5.3-5.3l1.1.6c3.7-1.3,7.5-2.5,11.2-3.7Z"/>
      <path class="cls-3" d="M654.2,555.8l4.3-.9c-1.8,24.5-10.6,46.9-23.8,67.5-4.1,6.5-9.1,12.3-13,18.9-.5.3-1.1.7-1.7.9-3.2-1-6.7-1.3-10-1.7,2.2-2.2,3.5-3.5,6.7-4,1.6-.3,2.7-.5,4-1.6,4.8-4,8.3-10.7,11.4-16,11.7-19.9,20.1-39.4,21.9-62.7l.3-.4Z"/>
      <path class="cls-50" d="M620.9,583.6c2.1-3.8,5.7-9.7,10-11.2-1.5,13.1-3.6,26.9-10.5,38.3-1.8,3.6-3.9,7.2-5.3,10.9-1.6,2.2-3.2,4.6-5.3,6.4.8-3.4,1.4-6.9,2-10.3,1.3-5.8,1.6-12,2.1-18,1.1-4.2,3.8-9.1,6.7-12.4l.4-3.8Z"/>
      <path class="cls-60" d="M620.5,587.4c-.4,5.1-2.4,19.6-.1,23.4-1.8,3.6-3.9,7.2-5.3,10.9-1.6,2.2-3.2,4.6-5.3,6.4.8-3.4,1.4-6.9,2-10.3,1.3-5.8,1.6-12,2.1-18,1.1-4.2,3.8-9.1,6.7-12.4Z"/>
      <path class="cls-13" d="M639.2,562.6l1,.2c-.8,5.8-1.4,11.8-2.8,17.5-3.3,13.2-11.1,32.7-22.1,41.2,0,0-.2.1-.3.2,1.5-3.7,3.5-7.3,5.3-10.9,6.9-11.5,9-25.3,10.5-38.3l.3-2.2c3.7-2.2,5.8-3.8,8-7.5Z"/>
      <path class="cls-13" d="M653.9,552.1l.3,3.6-.3.4c-4.2,1.5-8.4,3-12.6,4.3.1-1.8,0-3.5.3-5.3l1.1.6c3.7-1.3,7.5-2.5,11.2-3.7Z"/>
      <path class="cls-12" d="M675.5,598.6c2.2,0,3.7.3,5.4,1.7,1.7,1.4,1.9,2.4,2,4.4-1,1.7-1.5,1.9-3.2,2.8-.8,0-1.7.2-2.5.2-1.6,0-3-.3-4-1.5-1-1.2-1.5-2.4-1.1-4,.4-1.9,2-2.8,3.5-3.6Z"/>
      <path class="cls-56" d="M516.6,692.1c14-4.7,27.6-9.5,40.8-16.4,5.6-2.9,10.3-7.5,16.1-10,2.3-1,4.8-1,7.2-1.1,4.4.6,8.6,1.7,12.6,3.8,16,8.5,32,25.8,40,41.9-.9,2.9,2.1,4.2-1.2,6.5-1.4-1-1.6-2.2-2.1-3.8h-.3s0,1.2,0,1.2h.5c-.6,1.1-.4,1.3-.3,2.5,2.5,4.5,4.4,9,6.3,13.8-5.9,9.1-49.9,26.5-62.1,30.4-7.4,2.4-15.2,4.2-22.8,5.8-76,16.2-153.5,6-224.9-23.4l-1.6-1.4c4.1-11,11.5-21.7,14.2-33,.4-1.9,1.1-3.3,2.2-4.9l.4-.6-5.4-3.2c2.6-5.9,5.5-11.8,8.9-17.2v-.4c2-.9,4.1-2.8,6-4.1,2.4,1.1,4.6,2.2,6.8,3.6,19,8.9,39.2,14.9,59.9,18.1,1.6-1.1,2.6-.7,3.4-2.6,5.5.4,11.6.5,17,1.7,20.2.6,34.2,0,54.4-2.1,1.8-.7,4.2-.7,6.1-1.1l18-4Z"/>
      <path class="cls-3" d="M516.6,692.1c14-4.7,27.6-9.5,40.8-16.4,5.6-2.9,10.3-7.5,16.1-10,2.3-1,4.8-1,7.2-1.1,4.4.6,8.6,1.7,12.6,3.8l.4,1.8c-2.6-.8-5-2.7-7.8-2.7l-1.4.8c.7.7,1.4,1,2.2,1.4l.3,1.1c-1.6,0-3.4,0-4.9.5l2.5.9c.1,1,.3.9-.3,1.8-2.5,3.3-9.5,6-13.2,8.1-29.3,15.7-60,24.2-93.1,26.5-41.5,2.9-87.2-2.1-124.6-21.5,0-.6.1-1.1.4-1.6.9-1.7,2.4-2.7,4.2-3.3,19,8.9,39.2,14.9,59.9,18.1,1.6-1.1,2.6-.7,3.4-2.6,5.5.4,11.6.5,17,1.7,20.2.6,34.2,0,54.4-2.1,1.8-.7,4.2-.7,6.1-1.1l18-4Z"/>
      <path class="cls-12" d="M516.6,692.1c14-4.7,27.6-9.5,40.8-16.4,5.6-2.9,10.3-7.5,16.1-10,2.3-1,4.8-1,7.2-1.1,4.4.6,8.6,1.7,12.6,3.8l.4,1.8c-2.6-.8-5-2.7-7.8-2.7l-1.4.8c.7.7,1.4,1,2.2,1.4l.3,1.1c-1.6,0-3.4,0-4.9.5l-.7.2c-6.7,2.4-12.5,7.1-19.1,9.9-13.8,5.8-30.1,12.9-45,15.2-4.7.7-9.6-.3-14.3.5-4.1.7-7.8,2.9-12,3.4,1.1-1.4,1.4-1.5,1.4-3.3,1.8-.7,4.2-.7,6.1-1.1l18-4Z"/>
      <path class="cls-42" d="M438.1,699.3c20.2.6,34.2,0,54.4-2.1,0,1.8-.3,1.9-1.4,3.3-18.2,3.3-46.4,4.4-64.6.8l-8.7-1.1c1.6-1.1,2.6-.7,3.4-2.6,5.5.4,11.6.5,17,1.7Z"/>
      <path class="cls-13" d="M587,670.9l-.3-1.1c-.9-.4-1.6-.7-2.2-1.4l1.4-.8c2.8,0,5.2,1.8,7.8,2.7l-.4-1.8c16,8.5,32,25.8,40,41.9-.9,2.9,2.1,4.2-1.2,6.5-1.4-1-1.6-2.2-2.1-3.8h-.3s0,1.2,0,1.2h.5c-.6,1.1-.4,1.3-.3,2.5-5.6-6.7-11-17.7-16.9-25.2-5-6.3-11.6-11-17.4-16.5-2-1.9-3.8-2.3-6.4-2.9.7-.9,1.2-1.2,1.1-2.4-1.6,0-1.9.4-3.2,1.2Z"/>
      <path class="cls-33" d="M351,678.6c2.4,1.1,4.6,2.2,6.8,3.6-1.8.5-3.3,1.6-4.2,3.3-.3.5-.4,1-.4,1.6-.8,2.2-1.4,3.8-3.6,5-5.5,8.5-22.9,43.3-23.4,51.3l-1.6-1.4c4.1-11,11.5-21.7,14.2-33,.4-1.9,1.1-3.3,2.2-4.9l.4-.6-5.4-3.2c2.6-5.9,5.5-11.8,8.9-17.2v-.4c2-.9,4.1-2.8,6-4.1Z"/>
      <path class="cls-42" d="M351,678.6c2.4,1.1,4.6,2.2,6.8,3.6-1.8.5-3.3,1.6-4.2,3.3-.3.5-.4,1-.4,1.6-.8,2.2-1.4,3.8-3.6,5l2.7-5.1c-2.3-1.5-4.8-2.6-7.3-3.8v-.4c2-.9,4.1-2.8,6-4.1Z"/>
      <path class="cls-42" d="M395.6,724.4c4.6,0,9.1,1.5,12.4,4.9,1.2,1.3,1.5,2.4,1.4,4.1-1.1,2-1.3,2.3-3.3,3.3-2.8,0-6,.2-8.6-.9-2.2-.9-5.6-2.8-6.5-5.2-.4-1.1-.5-2,.1-3,1-1.7,2.7-2.6,4.5-3.3Z"/>
      <path class="cls-3" d="M542.4,702.1c1.2.1,2.6.2,3.8.5,2.5.6,6.1,2.8,7.2,5.2.5,1,.5,2.1,0,3.1-.9,1.6-3,2.5-4.7,3.1-2.3-.1-5.1-.3-7.3-1.1-2.5-.9-5-3.1-6.2-5.5,0-1.5-.2-2.3.9-3.5,1.4-1.6,4.4-1.6,6.4-1.9Z"/>
      <path class="cls-13" d="M636,730.6c3.4,6.6,4.6,15.2,6.2,22.4-.6,2.8-1.5,3.2-3.8,4.8-8.1,5.3-17.2,9.3-26,13.2-47.7,21.2-91.4,26.9-143.2,26.6-21.2-.1-43.1-1.1-63.9-5.7-15.5-3.4-78.8-18.9-88.4-27.5,2.2-7.5,4.8-15.2,7.7-22.4l1.6,1.4c71.4,29.4,148.9,39.6,224.9,23.4,7.6-1.6,15.4-3.4,22.8-5.8,12.1-3.9,56.2-21.4,62.1-30.4Z"/>
      <path class="cls-13" d="M312.3,820.9c.2,0,.4,0,.7,0,3.5.6,18.5,8.6,23.8,10.5,13.6,4.8,28.2,8,42.2,11.3,60.1,14.2,147.8,9.5,205.7-11.1,17.1-6.1,32.4-15.3,48.8-22.7-2.4,4.4-5.7,9.3-7.3,14-11,7.3-24.6,12.5-36.9,17.2-68.1,26.4-144.6,30.1-215.9,15.9-17.9-3.6-38.8-8.7-55.7-15.7-2.8-6.2-4.8-12.8-5.5-19.6Z"/>
      <path class="cls-5" d="M679.7,730.7c1,8.4,2.2,17.1,1.9,25.6-1.8,6.5-2.6,13.4-4.3,19.9-2.3,5.6-4.6,11.1-7.8,16.2-7.9,8.7-27.8,23.8-38.6,27.6,1.5-2.6,3.5-5.1,5.2-7.7,4.4-6.8,7.2-13.6,9.6-21.4,3.8-12.4,3.4-27.2,2.1-40,7.8-3.6,14.6-9.5,21.4-14.7,2.2-1.7,4.8-4.2,7.4-5.3,1-.4,2.1-.4,3.2-.3Z"/>
      <path class="cls-41" d="M645.7,791.1c9.8-2.2,19.1-12.6,28.1-15.6,1.5-.5,2.3.1,3.5.8-2.3,5.6-4.6,11.1-7.8,16.2-7.9,8.7-27.8,23.8-38.6,27.6,1.5-2.6,3.5-5.1,5.2-7.7,4.4-6.8,7.2-13.6,9.6-21.4Z"/>
      <path class="cls-22" d="M629.8,716.7c-.1-1.2-.3-1.4.3-2.4h-.5c0,0,0-1.3,0-1.3h.3c.5,1.6.7,2.9,2.1,3.8,3.3-2.3.3-3.6,1.2-6.5,3.9,6.4,6.6,12.9,9.1,19.9,1,2.8,1.7,5.9,2.9,8.5.9,4.1,1.9,8.2,2.5,12.3,1.4,12.8,1.8,27.6-2.1,40-2.4,7.8-5.2,14.6-9.6,21.4-1.6,2.6-3.7,5-5.2,7.7h-.6c-.7-4.9,3.5-7.7,5.6-11.4,1.2-2.2,1.8-5.6,2.5-8,4.5-16,5-31.2,3.9-47.8-1.6-7.2-2.8-15.8-6.2-22.4-1.8-4.8-3.8-9.3-6.3-13.8Z"/>
      <path class="cls-13" d="M246.8,254.8l4.5-2,2.4,6.1c1.4,3.4,3.2,6.7,4.4,10.1,29.5,1.6,55.5,1.3,77,25.2,2.3,2.6,4.5,5.4,6.4,8.2l.7.2.2.4c2.8,4.3,6.1,8.9,9.8,12.5,9.6,9.6,19.8,16.1,16.4,31.6-1.7,7.9-6.2,14.6-11.5,20.5,28.2-5.3,50.8-8.3,79.5-7.5,3.6.1,9.3-.4,12.6.9l-1,10.7-.5.3-2.2-.5c-5.5-.4-11.1-.2-16.5-.2-9.5,0-18.9,0-28.3.9-39.7,4.2-83.7,20.2-114.3,46.2-.5.4-.9.8-1.4,1.2l-1.6,1c-19.5,18-32.5,36.3-39.8,61.9-2.9-4.6-7-6.5-11.6-9.1l-1,5.1c-.8,2.9-1.7,5.8-2,8.9-4.7,16,1.3,44,6.4,59.4-2.3.5-4.6.1-7,0-4.5.2-9.1.6-13.5,1.5-19.1.8-39.3,11.7-54.2,23-5.3,4.5-11.9,9.3-16.1,14.8-13.7,13.5-26.4,36.3-26.6,56.1,0,5.3.7,10.8,0,16.1,0,1.5.4,3.3-.4,4.6-18.2-39.5-30.4-82.5-27.2-126.4-.8-4-.7-8.7-.2-12.7,2.1-11.8,2.6-23.6,5.1-35.3,8.9-42.5,30.8-81.3,62.5-110.9,1.2-1.4,2.9-2.6,4.2-3.9,1.5-16.4,8.1-15.8,17-26.6l.4-.5c1.7-4.9,2.9-10.1,4.5-15.1,7.4-23.1,22.8-40.1,44.1-51.1,3.9-1.7,6.9-3.2,9.7-6.5l.9-2.4c.5-5.5-.1-10.1-1.4-15.4,3.2,0,6.3-.4,9.4-1.4Z"/>
      <path class="cls-13" d="M246.8,254.8l4.5-2,2.4,6.1c1.4,3.4,3.2,6.7,4.4,10.1,29.5,1.6,55.5,1.3,77,25.2,2.3,2.6,4.5,5.4,6.4,8.2.8,2.6,8.4,18.6,10,19.8l.8-.2c1.6,2.2,3.1,4.4,4.5,6.8-.4,4.3-1.9,9.8-1.7,14-8.3,19.1-30.4,31-48.8,38.3-33,13.1-76.7,18-110.2,3.6-7.7-3.3-17-8.4-20.3-16.7-1.2-2.9-1.3-5.4-1-8.5.7-2,1.2-4.2,2.6-5.7,1.4,1.3,1.4,3,1.8,4.8.4-3.9.2-7.9.2-11.9,1.7-4.9,2.9-10.1,4.5-15.1,7.4-23.1,22.8-40.1,44.1-51.1,3.9-1.7,6.9-3.2,9.7-6.5l.9-2.4c.5-5.5-.1-10.1-1.4-15.4,3.2,0,6.3-.4,9.4-1.4Z"/>
      <path class="cls-34" d="M351.7,322.1l.8-.2c1.6,2.2,3.1,4.4,4.5,6.8-.4,4.3-1.9,9.8-1.7,14-8.3,19.1-30.4,31-48.8,38.3-33,13.1-76.7,18-110.2,3.6-7.7-3.3-17-8.4-20.3-16.7-1.2-2.9-1.3-5.4-1-8.5.7-2,1.2-4.2,2.6-5.7,1.4,1.3,1.4,3,1.8,4.8,0,.9.1,1.6.4,2.5,1.8,6.5,5.8,10.3,11.6,13.6,29,16.4,67.1,14.6,98.1,5.8,22.1-6.3,49.4-19,60.9-40.2,3.4-6.3,3.3-11.2,1.3-18Z"/>
      <path class="cls-10" d="M237.9,273.9c1.5,1.8,3.1,4.3,5.7,4.5,1.5.2,3-.1,4.4-.4,1.6.4,3,0,4.5-.3,2,.8,4.1,1.6,5.8,2.9l.4,1.1-1.7,2.2c-3.1.8-7,2.5-9.7,4.2-3.4.5-7.5.6-10.6-1.2-2.4-1.3-3.7-2.7-4.4-5.4,0-.2,0-.3-.1-.5l-1.1-.3-2.9-.4c3.9-1.7,6.9-3.2,9.7-6.5Z"/>
      <path class="cls-34" d="M246.8,254.8l4.5-2,2.4,6.1c-1.9.5-2.7.4-3.8,2.2-2,3-3.4,6.9-4.9,10.2,0,.1,0,.2.1.3.5,1.4.4,2.4.1,3.9.8,1,1.5,1.5,2.5,2.1v.5c-1.3.3-2.8.6-4.3.4-2.5-.3-4.1-2.7-5.7-4.5l.9-2.4c.5-5.5-.1-10.1-1.4-15.4,3.2,0,6.3-.4,9.4-1.4Z"/>
      <path class="cls-22" d="M246.8,254.8c-1.2,5.1-4.3,11.7-2.5,16.7-.5.7-.5.7-1.3,1-.6-.9-1.1-1.8-1.6-2.8h-1.1c0,0-1.6,1.9-1.6,1.9.5-5.5-.1-10.1-1.4-15.4,3.2,0,6.3-.4,9.4-1.4Z"/>
      <path class="cls-22" d="M247.3,288.2c7.1,0,13.7-.3,19.4-5.1,3.3-2.8,3.3-6.1,3.7-10.1.5.4.8.7,1,1.3.8,1.9.7,3.8-.2,5.7-2.7,5.2-10.4,8.5-15.6,10.3-6.4,2.2-17.5,4.8-23.8,1.4-1.5-.8-2.6-2-3-3.7-.6-2.7.9-4.9,2.3-7l1.1.3c0,.2,0,.3.1.5.7,2.7,2.1,4.1,4.4,5.4,3.1,1.7,7.1,1.7,10.6,1.2Z"/>
      <path class="cls-33" d="M257.3,274.9c1.9-.3,2.9,0,4.6.9.9,1.3,1.4,1.9,1,3.6-.2,1.3-1.1,2.5-2.2,3.2-1.1.7-2.5,1-3.7,1.3l1.7-2.2-.4-1.1c-1.8-1.3-3.8-2.1-5.8-2.9,1.7-.8,3.2-1.8,4.7-2.9Z"/>
      <path class="cls-43" d="M232.6,354.6c-.5-6.5-.4-12.9,2.3-19,2.6-5.8,7-10.5,13.1-12.6,8-2.9,16.7-1.4,24.1,2.2l.2.3c4.2,6.9,11.6,19.2,9.7,27.6-.3,1.3-.9,1.9-2,2.7l-.5-.2c2.1-6.9,1.3-12.4-2.2-18.7-3.1-5.8-8.8-12-15.3-13.8-4-1.2-9-.9-12.7,1.3-2.3,1.4-3.7,3-4.7,5.5,1-1,1.4-1,2.9-.9.5,0,1.1.2,1.6.3.2,0,.4-.2.5-.3,4.1-2,7.8-2,12-.5,5.6,1.9,10.1,6.2,12.7,11.5,1.3,2.8,3,8.5,1.9,11.5-.2.5-.4,1-.7,1.4-2.2,6.9-5,13.2-11.7,16.7-4,2.1-8.3,2.2-12.5.8-4.5-1.5-7.1-4.3-10.4-7.5-2.8-1.9-5.6-5.7-8.2-8.1Z"/>
      <path class="cls-34" d="M232.6,354.6c-.5-6.5-.4-12.9,2.3-19,2.6-5.8,7-10.5,13.1-12.6,8-2.9,16.7-1.4,24.1,2.2l.2.3c4.2,6.9,11.6,19.2,9.7,27.6-.3,1.3-.9,1.9-2,2.7l-.5-.2c2.1-6.9,1.3-12.4-2.2-18.7-3.1-5.8-8.8-12-15.3-13.8-4-1.2-9-.9-12.7,1.3-2.3,1.4-3.7,3-4.7,5.5,1-1,1.4-1,2.9-.9.5,0,1.1.2,1.6.3.2,0,.4-.2.5-.3,4.1-2,7.8-2,12-.5,5.6,1.9,10.1,6.2,12.7,11.5,1.3,2.8,3,8.5,1.9,11.5-.2.5-.4,1-.7,1.4-.7-7.4-2-14.5-7.9-19.6-3.6-3.1-8.2-4.6-12.9-4.1-5.1.5-9.6,3.4-12.7,7.4-3.7,4.8-5.1,11.1-4.3,17.1.5,3.3,1.7,6.2,3.1,9.2-2.8-1.9-5.6-5.7-8.2-8.1Z"/>
      <path class="cls-53" d="M257.3,334.4c1.7-.9,3.8-.8,5.4.3,1.6,1.1,2.5,2.9,2.4,4.9-.1,1.9-1.3,3.6-3.1,4.5-2.7,1.2-5.8.1-7.1-2.5-1.3-2.6-.2-5.8,2.4-7.1Z"/>
      <path class="cls-63" d="M267,318.7c-7.3-2.2-12.6-2.1-20.1-1.8,3.5-.7,6.3-1.4,9.9-1.5.9-3.4-2-8-1-12,1.2-4.9,6.8-9.8,10.9-12.2,3.7-2.2,8.6-3.7,12.8-2.7,8.2-.4,14.8,3.5,21.3,7.8,1.5,1,3.2,2.4,5,2.9.1-.8.1-1.4,0-2.2,3.2-.9,9.3,2.7,12.3,4.3,3.6,2,8.7,4.9,10.1,9.2l-.5.5c-.8-.6-1.4-1.3-2.1-2-4.3-4.7-9.5-5.9-15.1-8.1l-6.2.8c-1.1,2.2-1.7,3.5-1.5,6,0,.2,0,.3,0,.5-5.2,2.9-7.1,6-9.2,11.5l-.2,2.1c-.4,1.9-.3,4-2.2,5.1-5.3,3.1-13.4,0-18.9-1.4l-.2-.3c-.6-2.4-3.4-4.8-5.1-6.5Z"/>
      <path class="cls-12" d="M279.4,288.5c8.2-.4,14.8,3.5,21.3,7.8,1.5,1,3.2,2.4,5,2.9.1-.8.1-1.4,0-2.2,3.2-.9,9.3,2.7,12.3,4.3,3.6,2,8.7,4.9,10.1,9.2l-.5.5c-.8-.6-1.4-1.3-2.1-2-4.3-4.7-9.5-5.9-15.1-8.1l-6.2.8c-1.1,2.2-1.7,3.5-1.5,6,0,.2,0,.3,0,.5-5.2,2.9-7.1,6-9.2,11.5l-.2,2.1c-.4,1.9-.3,4-2.2,5.1-5.3,3.1-13.4,0-18.9-1.4l-.2-.3c-.6-2.4-3.4-4.8-5.1-6.5,1.1.3,2.1.5,3.3.6l.5-.6-1.6-2.3c3.3-1.5,11.5,2.7,16.8.9,3.7-1.2,5.7-4.4,7.4-7.7-1.5-3.8,1.2-3.1,2.2-5.9-4.5-1.9-7.3-3.8-10.8-7.1-4.1-1.3-11.6-.9-14.3-2.7l.4-.3-.3-1.3c2.2-3.6,6.2-1,8.7-3.8Z"/>
      <path class="cls-42" d="M279.4,288.5c8.2-.4,14.8,3.5,21.3,7.8,1.5,1,3.2,2.4,5,2.9.1-.8.1-1.4,0-2.2,3.2-.9,9.3,2.7,12.3,4.3,3.6,2,8.7,4.9,10.1,9.2l-.5.5c-.8-.6-1.4-1.3-2.1-2-4.3-4.7-9.5-5.9-15.1-8.1-2.7-1.3-5.9-.9-8.9-.8-10.3-6.9-18.4-10.1-30.9-7.8,2.2-3.6,6.2-1,8.7-3.8Z"/>
      <path class="cls-33" d="M297.8,303.9c2.2-.6,4.3-1.4,6.5-2.2-1.1,2.2-1.7,3.5-1.5,6,0,.2,0,.3,0,.5-5.2,2.9-7.1,6-9.2,11.5-.1-5.2,1.4-11.4,4.3-15.8Z"/>
      <path class="cls-25" d="M282.4,303.4c1.8-.3,3.7.5,4.8,1.9,1.1,1.5,1.4,3.4.6,5.1-.7,1.7-2.3,2.9-4.2,3-2.8.3-5.2-1.7-5.5-4.5-.3-2.7,1.6-5.3,4.3-5.7Z"/>
      <path class="cls-43" d="M310.5,300.9c5.6,2.2,10.9,3.4,15.1,8.1.7.7,1.3,1.4,2.1,2,3.8,6.5,9.7,14.3,8.7,22.2-2.3-7.9-4-17.7-11.8-22.2-3.6-2-7.1-3.4-11.2-2.2-.9.2-1.5.6-2.3,1.1-.7.4-1.3.6-2.1.9h.8c6.3.9,11.9,3.3,15.9,8.5,2.9,3.7,5.5,10,4.7,14.8-.2,1-.4,2.1-.6,3.1-.6,2.5-1.1,5-2.3,7.3-1.8,3.3-4.6,6-8.3,7-3.6,1-7.4.2-10.7-1.7-6.8-3.9-10.1-10.5-12.1-17.8-1.6-3.3-1.3-6.8-3.2-10.3l.2-2.1c2.1-5.5,4.1-8.6,9.2-11.5,0-.2,0-.3,0-.5-.1-2.5.4-3.8,1.5-6l6.2-.8Z"/>
      <path class="cls-9" d="M310.5,300.9c5.6,2.2,10.9,3.4,15.1,8.1.7.7,1.3,1.4,2.1,2,3.8,6.5,9.7,14.3,8.7,22.2-2.3-7.9-4-17.7-11.8-22.2-3.6-2-7.1-3.4-11.2-2.2-.9.2-1.5.6-2.3,1.1-.7.4-1.3.6-2.1.9h.8c6.3.9,11.9,3.3,15.9,8.5,2.9,3.7,5.5,10,4.7,14.8-.2,1-.4,2.1-.6,3.1-.4-3.9-1-7.9-2.4-11.6-2.5-6.6-7-10.2-13.3-12.9-4.7-.3-8.8-.4-12.6,2.8-3,2.5-4.3,6.2-4.9,10,0,2.2-.2,4.4,0,6.5-1.6-3.3-1.3-6.8-3.2-10.3l.2-2.1c2.1-5.5,4.1-8.6,9.2-11.5,0-.2,0-.3,0-.5-.1-2.5.4-3.8,1.5-6l6.2-.8Z"/>
      <path class="cls-13" d="M310.5,300.9c5.6,2.2,10.9,3.4,15.1,8.1-8.7-.1-13.6-3.5-22.8-.8,0-.2,0-.3,0-.5-.1-2.5.4-3.8,1.5-6l6.2-.8Z"/>
      <path class="cls-53" d="M306.1,329.1c-.9-1-2.1-2.4-2.5-3.7-.5-1.8,0-4.3.9-5.9.9-1.6,2.4-3,4.3-3.3,1.2-.2,2.4,0,3.4.8,2.3,1.6,2.8,4,3.3,6.6-2,2.3-4.7,5.7-8.1,5.7-.7,0-.8,0-1.4-.2Z"/>
      <path class="cls-33" d="M257.7,269.3c.2,1.7.2,2.1-.4,3.6-2.1,1-3.2,1.8-5.5,1.7l-.5-1c.2-.5.3-.8.6-1.2,1.3-2.1,3.7-2.6,5.9-3Z"/>
      <path class="cls-9" d="M341.6,302.3l.7.2.2.4c2.8,4.3,6.1,8.9,9.8,12.5,9.6,9.6,19.8,16.1,16.4,31.6-1.7,7.9-6.2,14.6-11.5,20.5,28.2-5.3,50.8-8.3,79.5-7.5,3.6.1,9.3-.4,12.6.9l-1,10.7-.5.3-2.2-.5c-5.5-.4-11.1-.2-16.5-.2-9.5,0-18.9,0-28.3.9-39.7,4.2-83.7,20.2-114.3,46.2-.5.4-.9.8-1.4,1.2l-1.6,1c-2.7-4-5.8-9.8-9.6-12.6-3,0-6,0-9,.6-22,3-50.5,2.1-71.5-4.9-6.3-2.1-12.3-4.6-18.2-7.6-17.5,14.7-34.3,39.1-41.6,60.9-1.8,5.5-2.4,11.1-3.8,16.7l.6.5c5.7-.9,10.7-4.2,16.4-5.3-3.2,2.3-8,3.9-11.7,5.1-1.2.6-2.4,1.3-3.6,2-1.3.8-2,3-2.5,4.4,1,.6,1.3.3,2.5,0,4.5-1.3,8.3-4.1,13-5l.6.3c-6,2-12.3,5-17.7,8.4-.5,11.1-1,22.3-.5,33.3.7,13,7.1,58,14.7,67.6.9,1.2,1.7.9,3.1,1-13.7,13.5-26.4,36.3-26.6,56.1,0,5.3.7,10.8,0,16.1,0,1.5.4,3.3-.4,4.6-18.2-39.5-30.4-82.5-27.2-126.4-.8-4-.7-8.7-.2-12.7,2.1-11.8,2.6-23.6,5.1-35.3,8.9-42.5,30.8-81.3,62.5-110.9,1.2-1.4,2.9-2.6,4.2-3.9,1.5-16.4,8.1-15.8,17-26.6l.4-.5c0,3.9.3,7.9-.2,11.9-.4-1.8-.4-3.5-1.8-4.8-1.4,1.6-1.9,3.8-2.6,5.7-.3,3.1-.2,5.6,1,8.5,3.3,8.2,12.6,13.3,20.3,16.7,33.4,14.5,77.1,9.5,110.2-3.6,18.4-7.3,40.5-19.2,48.8-38.3-.2-4.2,1.3-9.6,1.7-14-1.4-2.3-2.8-4.6-4.5-6.8l-.8.2c-1.6-1.2-9.3-17.2-10-19.8Z"/>
      <path class="cls-17" d="M355.3,342.7c2.4-4.3,3.3-9.7,2.1-14.5-.3-1.3-.9-2.1-.2-3.3,1.7.4,2.2,1.2,3.1,2.7,3.4,6.1,4.9,11.8,2.9,18.5-5.5,18.3-22.6,29.9-38.7,38.2-27.9,14.4-61.4,20-92.6,19.3-5-.1-11.6.3-16.4-1.3-.1,0-.2-.1-.3-.2-.2-.5-.1-1.1-.5-1.5-.6-.6-18.1-4.5-20.5-5.2-4.4-1.3-8.6-2.9-12.6-5.2-6.3-3.5-11.5-8-13.6-15.1,0-1.4.2-2.8.3-4.3.4-4.1,2.2-9.1,5.5-11.8h1.2c-.3,3.2-.2,5.8,1,8.7,3.3,8.2,12.6,13.3,20.3,16.7,33.4,14.5,77.1,9.5,110.2-3.6,18.4-7.3,40.5-19.2,48.8-38.3Z"/>
      <path class="cls-13" d="M157.9,377.5c2.4,1.3,3.7,5,4.8,7.4-28.5,26.1-48.3,60.4-56.4,98.2-1,4.9-2.4,10-2.8,15-.6,1.4-1.2,2.8-2,4.1,0,1.6-.2,4.5.8,5.7-1.4,3.4-5.3,7.9-5.6,11.5-2.2,5.7-4.2,11.4-6.1,17.2-.8-4-.7-8.7-.2-12.7,2.1-11.8,2.6-23.6,5.1-35.3,8.9-42.5,30.8-81.3,62.5-110.9Z"/>
      <path class="cls-34" d="M101.5,502.2c0,1.6-.2,4.5.8,5.7-1.4,3.4-5.3,7.9-5.6,11.5-2.2,5.7-4.2,11.4-6.1,17.2-.8-4-.7-8.7-.2-12.7l.6,2.7c.7-.2,1-2.9,1.2-3.8,1.7-7.1,4.7-14.8,9.3-20.6Z"/>
      <path class="cls-13" d="M96.6,519.4c1.3,1.2,1.3,1.9,1.4,3.7,0,6.8-.5,13.6-.5,20.4,0,18.6,2.2,38.8,7.3,56.7,3.3,11.9,9.1,23.3,12,35.3,1.8,7.5-.6,15.5,1.4,22.8,0,1.5.4,3.3-.4,4.6-18.2-39.5-30.4-82.5-27.2-126.4,1.8-5.8,3.8-11.5,6.1-17.2Z"/>
      <path class="cls-22" d="M126,477.8l1.1.8c.3,1.8.3,2.8-.9,4.4-6.8,8.8-17.7,14.1-24,25-1-1.3-.7-4.1-.8-5.7.8-1.3,1.4-2.7,2-4.1,2.8-2.9,5.2-6.1,8-8.9,4.4-4.3,9.6-7.8,14.6-11.4Z"/>
      <path class="cls-33" d="M164.7,373.6c.5-2.4,1-4.6,1.6-7l.9.2v-1.7c.8,3.1.1,6.4.7,9.6,0,.2,0,.4.1.6,2,7.1,7.3,11.6,13.6,15.1,4,2.2,8.2,3.9,12.6,5.2,2.3.7,19.8,4.6,20.5,5.2.4.4.3,1,.5,1.5-7.2-.3-15.4-2.8-22.1-5.3-13.1-4.9-22.3-10.1-28.3-23.2Z"/>
      <path class="cls-55" d="M149.5,474.4c17.1-4.2,60.3-6.5,75.8,2,.1,0,.3.2.4.2l1.9.4,3.4,1.6c-.8,2.9-1.7,5.8-2,8.9-4.7,16,1.3,44,6.4,59.4-2.3.5-4.6.1-7,0-4.5.2-9.1.6-13.5,1.5-19.1.8-39.3,11.7-54.2,23-.5-.4-.9-.7-1.3-1.2-2.1-3-2.6-7-3.8-10.5-9.7-27.6-10.6-56.4-6.2-85.1Z"/>
      <path class="cls-3" d="M225.7,476.6l1.9.4,3.4,1.6c-.8,2.9-1.7,5.8-2,8.9-4.7,16,1.3,44,6.4,59.4-2.3.5-4.6.1-7,0-5.7-20-8.5-42.5-5.4-63.1.4-2.7.4-5.4,2.7-7Z"/>
      <path class="cls-33" d="M151.2,467.1c-.5-.8-.4-1.6-.3-2.5,1.3-12.6,9.6-22.6,14.6-33.7,1.4-3.2,1.4-6.9,3.5-9.8,3.6-5.1,9.8-10.3,14.8-14.1,3.2-2.4,5.4-4,9.6-3.4,21,7,49.5,7.9,71.5,4.9-17.1,15-32.9,37.1-38.4,59.5-4.6-.8-11.3-2.9-15.9-2.2l-.5.8c-3.6,1-13.6-2-17.9-2.2-14-.8-27.2.3-40.9,2.6Z"/>
      <path class="cls-3" d="M264.9,408.7c3-.6,6-.5,9-.6-11.6,11.8-23,23.5-31.1,38.2-3,5.4-5.3,11.1-7.5,16.9-.9,2.4-2,7.4-3.3,9.3-.2.3-.6.4-1,.5h-.7c-6.1-3.4-13.4-5.2-20.2-6.3l.5-.8c4.6-.7,11.3,1.4,15.9,2.2,5.6-22.4,21.3-44.5,38.4-59.5Z"/>
      <path class="cls-59" d="M402.4,517c-.2-11.8,4.3-22.4,12.4-31,9.8-10.3,23.6-15.8,37.8-16,14.7-.3,28.8,5.2,39.3,15.5,9.5,9.4,13.1,20.3,13.1,33.4v2.1c6.8-3.3,12.4-3.5,19.7-1,10.7,3.7,19.3,12.3,24.1,22.4,5.3,11.2,5.8,25.3,1.4,36.9l-.2.6c-1.9,3.9-3.9,8.2-6.7,11.6l1.1.4c1.1-1.4,2.2-3.4,3.9-3.9,1.6,2.6,5.5,6.2,6.2,8.9-1.3,2-4.7,1.4-5,4,7.7-3.3,14.8-4.7,22.9-1.4,5.7,2.3,10.5,6.7,13,12.4,2.6,6.1,2.1,12.5-.4,18.4,0,.2-.1.3-.2.5,6.3,1,12,2.1,16.9,6.4-2.3,2.9-8.6,9.1-8.7,12.8l.3.4c-4.7,5-9.7,9.6-15.2,13.7.9.2,1.8.5,2.7.6-2.4.1-4.9.2-7.2,1.1-5.8,2.5-10.5,7.1-16.1,10-13.1,6.9-26.8,11.7-40.8,16.4l-18,4c-1.9.4-4.4.5-6.1,1.1-20.2,2.1-34.2,2.7-54.4,2.1-5.4-1.2-11.5-1.3-17-1.7-.8,1.9-1.8,1.6-3.4,2.6-20.7-3.1-40.9-9.2-59.9-18.1-2.2-1.4-4.4-2.6-6.8-3.6-8.6-3.7-16.8-9.4-24.3-15-1.5-2.4-3.6-4-5-6.6l-.6-.8c-10.4-5-29.7-26-35.6-36.1-4.8-5.3-11.3-14-15.1-20,.5-1.8.9-3.6,1.4-5.4,1.9-5.9,6-11.3,11.6-14,7.7-3.8,15.4-2.5,23.2,0,.5-3.3,1.5-6.2,3.3-9.1,4.3-7.1,11.5-12.1,19.5-14,11.5-2.8,22.8,0,32.7,6.2l5.2,3.7c-1.1-5.5-2-10.5-1.4-16.1,1.6-15.4,12.3-27.8,27.1-31.9,2.9-.8,7.3-.5,9.5-2.4Z"/>
      <path class="cls-11" d="M306.6,580.7c.5-3.3,1.5-6.2,3.3-9.1,4.3-7.1,11.5-12.1,19.5-14,11.5-2.8,22.8,0,32.7,6.2l5.2,3.7,3.3,3.6c1.6,3.4,3.3,6.7,4.7,10.2.2,1,.3,3.8,1,4.4-.3-3.2-1-7.5-2.3-10.5,0,0-.4-.9-.5-1.1-.2-1.2.4-1.7,1.1-2.6,2.9-.3,5.7-1.1,8.7-1.1,6.2.1,10.9,5.7,14.8,9.9l.3.3c3.8,8.3,4.8,15.4,3.8,24.4-1.4,4-3.5,7.8-6,11.2.7,7.1.5,12.9-4.3,18.7-3.9,4.7-9.7,7.5-15.7,8-2.2.2-4.3.2-6.5.1.4,8.5,2.3,17.1,2.4,25.5-.9,1.1-1.1,1.8-2.5,2.1,0-.1.1-.3.2-.4.6-1.9,1.3-4.2.8-6.1-1-.5-14.9-.8-16.1-.5-2.4.6-3.3,1.6-4.8,3.6-.9,1.2-1.7,2.3-3.1,3.1h-.7l-4,.5c-6.9-4.2-13.4-9.1-20-13.7l-.6-.8c-10.4-5-29.7-26-35.6-36.1-4.8-5.3-11.3-14-15.1-20,.5-1.8.9-3.6,1.4-5.4,1.9-5.9,6-11.3,11.6-14,7.7-3.8,15.4-2.5,23.2,0Z"/>
      <path class="cls-52" d="M362,563.7l5.2,3.7,3.3,3.6c1.6,3.4,3.3,6.7,4.7,10.2-.2,5.7-.4,10.3-3.7,15.1-3.4,4.9-9.2,8-15,9-6.4,1.1-13.4-.3-18.7-4.1-4.7-3.4-7.8-8.5-8.7-14.2-.9-5.2-.2-9.5,3-13.8,8.7-11.7,17.7-7.5,29.4-9.3.2,0,.3,0,.5,0Z"/>
      <path class="cls-29" d="M270.4,600.1c.5-1.8.9-3.6,1.4-5.4,1.9-5.9,6-11.3,11.6-14,7.7-3.8,15.4-2.5,23.2,0,.5,6.4.3,12.1,2.3,18.3-7.3,1.2-14,3.1-18.6,9.3-2.5,3.5-4,7.6-4.8,11.8-4.8-5.3-11.3-14-15.1-20Z"/>
      <path class="cls-35" d="M347.9,647.6c2.9-2.8,5.1-5.9,7.3-9.2,5,3.1,8.4,4.1,14.3,4.7.4,8.5,2.3,17.1,2.4,25.5-.9,1.1-1.1,1.8-2.5,2.1,0-.1.1-.3.2-.4.6-1.9,1.3-4.2.8-6.1-1-.5-14.9-.8-16.1-.5-2.4.6-3.3,1.6-4.8,3.6-.9,1.2-1.7,2.3-3.1,3.1h-.7c.5-2.6,3.9-5.4,5.1-7.9,1.7-3.7-1.6-11-2.8-14.7Z"/>
      <path class="cls-59" d="M321.2,656.2c0,0,.2,0,.2-.1,4.1-2.4,11.3-1.1,16.2-2.7,3.8-1.2,7.1-3.6,10.3-5.8,1.2,3.7,4.5,11,2.8,14.7-1.2,2.5-4.5,5.3-5.1,7.9l-4,.5c-6.9-4.2-13.4-9.1-20-13.7l-.6-.8Z"/>
      <path class="cls-52" d="M314.8,607c1.7,0,3.5,0,5.2.1,6.1.6,10.2,3.9,13.9,8.5.2,3.2.6,6.2-1.1,9.1-2.2,3.6-6.7,4.9-10.5,5.9-4.8,0-11-.2-15-3.3-4.1-3.2-4.3-7.5-4.8-12.3,3.4-4.3,7.1-6.3,12.2-7.9Z"/>
      <path class="cls-37" d="M433.2,605c2.1,2.5,4.4,5.1,5.7,8.1,4.1,9.6,2.1,29.3,2,39.9l.4,6.5c3.8,1.1,7.5,2.3,11.3,3.1,5.5-1.4,10.6-2.5,15.9,0,0,3.2-.4,7.9,1.1,10.9.9-4.8,3-9.4,7.1-12.3,3.5-2.4,6.8-3.1,11-2.9.5,0,1.1,0,1.6,0,3.1,2.1,6.7,4.2,7.4,8.2.8,4.5-2.1,9.6-3.8,13.7,6.2-2.7,10.3-2.9,16.9-2.7,3.2,2.1,6.4,4.3,7.3,8.3.5,2,.1,4.2-.4,6.2l-18,4c-1.9.4-4.4.5-6.1,1.1-20.2,2.1-34.2,2.7-54.4,2.1-5.4-1.2-11.5-1.3-17-1.7-.8,1.9-1.8,1.6-3.4,2.6-20.7-3.1-40.9-9.2-59.9-18.1-2.2-1.4-4.4-2.6-6.8-3.6-8.6-3.7-16.8-9.4-24.3-15-1.5-2.4-3.6-4-5-6.6,6.6,4.6,13.1,9.5,20,13.7l4-.5h.7c1.4-.8,2.1-1.9,3.1-3.1,1.4-1.9,2.4-3,4.8-3.6,1.2-.3,15.2,0,16.1.5.5,2-.2,4.2-.8,6.1,0,.2-.1.3-.2.4,1.4-.3,1.6-1,2.5-2.1,0-8.4-1.9-17-2.4-25.5,2.2,0,4.3,0,6.5-.1,6.1-.5,11.8-3.3,15.7-8,4.8-5.8,4.9-11.6,4.3-18.7,2.6-3.4,4.6-7.2,6-11.2,1.4.4,2.9,1.5,4.3,2.1,4.1,1.9,8.8,3.1,13.4,3.2,5.1,0,9.3-1.8,12.9-5.3h.6Z"/>
      <path class="cls-36" d="M433.2,605c2.1,2.5,4.4,5.1,5.7,8.1,4.1,9.6,2.1,29.3,2,39.9l-.3,4.5c-.8.6-.7.7-1.7.7-4.7-.2-6.8,2.8-10.8,3.3-1.9.2-1.5-1.6-3.8-.9-.3,1-.6,1.9-.9,2.9-2.2-5.5-5.5-9.7-11.1-12-4.3-1.8-9.2-1.9-13.5-.1-3.7,1.6-6.7,4.5-8.2,8.3-1,2.4-1.3,4.8-1.5,7.4l-7.4-2.2c-3.4,1-6.6,2.1-9.8,3.7,0-8.4-1.9-17-2.4-25.5,2.2,0,4.3,0,6.5-.1,6.1-.5,11.8-3.3,15.7-8,4.8-5.8,4.9-11.6,4.3-18.7,2.6-3.4,4.6-7.2,6-11.2,1.4.4,2.9,1.5,4.3,2.1,4.1,1.9,8.8,3.1,13.4,3.2,5.1,0,9.3-1.8,12.9-5.3h.6Z"/>
      <path class="cls-11" d="M440.9,653.1l.4,6.5c3.8,1.1,7.5,2.3,11.3,3.1.5,2.2-1.2,11.9-1.8,14.4-.1-.2-.3-.4-.4-.6-.9-1.4-2.2-2.3-3.6-3.1-2-1.5-4.5-2.6-6.9-3.1-5.1-1.2-8.6.5-12.8,3.3-1.4-3.3-2.7-6.5-3.7-10,.3-.9.7-1.9.9-2.9,2.3-.7,1.8,1.1,3.8.9,4-.5,6.1-3.4,10.8-3.3,1,0,.9,0,1.7-.7l.3-4.5Z"/>
      <path class="cls-33" d="M321.7,657c6.6,4.6,13.1,9.5,20,13.7,25,13.7,51,23.2,79.5,26.9-.8,1.9-1.8,1.6-3.4,2.6-20.7-3.1-40.9-9.2-59.9-18.1-2.2-1.4-4.4-2.6-6.8-3.6-8.6-3.7-16.8-9.4-24.3-15-1.5-2.4-3.6-4-5-6.6Z"/>
      <path class="cls-16" d="M452.6,662.7c5.5-1.4,10.6-2.5,15.9,0,0,3.2-.4,7.9,1.1,10.9l.2,1.6h-.9c0,0-.3-.4-.3-.4-2.7.6-5.7,1-8.3,2.1-2.2.9-4.6,2.7-6.8,3.1-1.2.2-2,.2-3.1-.3-1.2-2.1-2.3-4.3-3.6-6.3,1.4.8,2.7,1.7,3.6,3.1.1.2.3.4.4.6.6-2.5,2.3-12.2,1.8-14.4Z"/>
      <path class="cls-11" d="M543.4,591.6l1.1.4c1.1-1.4,2.2-3.4,3.9-3.9,1.6,2.6,5.5,6.2,6.2,8.9-1.3,2-4.7,1.4-5,4,7.7-3.3,14.8-4.7,22.9-1.4,5.7,2.3,10.5,6.7,13,12.4,2.6,6.1,2.1,12.5-.4,18.4,0,.2-.1.3-.2.5,6.3,1,12,2.1,16.9,6.4-2.3,2.9-8.6,9.1-8.7,12.8l.3.4c-4.7,5-9.7,9.6-15.2,13.7.9.2,1.8.5,2.7.6-2.4.1-4.9.2-7.2,1.1-5.8,2.5-10.5,7.1-16.1,10-13.1,6.9-26.8,11.7-40.8,16.4.6-2,.9-4.1.4-6.2-.9-4-4.1-6.2-7.3-8.3-6.6-.1-10.7,0-16.9,2.7,1.7-4.1,4.5-9.2,3.8-13.7-.7-4-4.2-6.2-7.4-8.2-.5,0-1.1,0-1.6,0-4.2-.2-7.5.5-11,2.9-4.1,2.9-6.3,7.5-7.1,12.3-1.5-2.9-1-7.6-1.1-10.9,0-4.4,0-8.8.3-13.2v-8.9c6.6-7,24.6-24.9,28.6-32.3l1.3.2c11.6,2.1,25.4.6,34.6-7.4,3.2-2.7,5.8-6.8,9.3-9.1.2-.2.5-.3.7-.4Z"/>
      <path class="cls-19" d="M543.4,591.6l1.1.4c1.1-1.4,2.2-3.4,3.9-3.9,1.6,2.6,5.5,6.2,6.2,8.9-1.3,2-4.7,1.4-5,4-7.6,6-10.2,10.7-11.3,20.3-.1,1-.2,2-.3,3-6-3.3-11.8-5.1-18.7-3.1-4.9,1.4-8.7,4.6-11.1,9.1-2.9,5.5-2.9,10.7-2.8,16.8-.9.1-1.1,0-1.9-.3-10.2-3.5-17.1-.1-27.1,1.1-2,.2-4.6-.4-6.3.6-.8.4-.8.6-1.2,1.2v-8.9c6.6-7,24.6-24.9,28.6-32.3l1.3.2c11.6,2.1,25.4.6,34.6-7.4,3.2-2.7,5.8-6.8,9.3-9.1.2-.2.5-.3.7-.4Z"/>
      <path class="cls-52" d="M563,604.3c1.7-.4,3,.1,4.6.6,4.6,1.4,8.8,3.6,10.9,8.1,1.1,2.2,1.4,4.8.6,7.1-1.2,3.5-3.7,5.2-6.9,6.7-2.7-.3-6.1-1.4-8.6-2.4-3.4-1.4-6.7-4.1-8.1-7.6-.8-2-.8-4.1,0-6.1,1.5-3.2,4.2-5,7.3-6.3Z"/>
      <path class="cls-6" d="M433.2,605l.4-.7c1.4.5,2.2,1.9,3.1,3.1,1.4.3,2,.2,3.3-.2.3-.4.6-.8.8-1.3.6-1.8,0-3.3-.8-4.9-.4-.9-.1-1.1.1-2,1.3,2.7,2.8,7.2,5.4,8.7,1-.8,1.1-1.5,1.5-2.7l.3-.8.3,2.1c2.8,2.8,15.7-3,20.3-1.8l1.4.7c3,.9,5.9,1.8,8.9,2.1,4.6-.1,8.6-.4,12.8-2.6l6.4,3.6c-4,7.4-22,25.3-28.6,32.3v8.9c-.2,4.4-.3,8.8-.3,13.2-5.3-2.6-10.5-1.4-15.9,0-3.8-.9-7.6-2-11.3-3.1l-.4-6.5c.1-10.6,2.1-30.3-2-39.9-1.3-3-3.6-5.6-5.7-8.1Z"/>
      <path class="cls-20" d="M469.3,605.2c3,.9,5.9,1.8,8.9,2.1-2.5,5.2-5.8,9.5-9.5,13.9.5-5.2.4-10.7.5-15.9Z"/>
      <path class="cls-14" d="M367.2,567.4c-1.1-5.5-2-10.5-1.4-16.1,1.6-15.4,12.3-27.8,27.1-31.9,2.9-.8,7.3-.5,9.5-2.4-.3,1.8-.2,2.2-1.6,3.4-4.4,1-9-.8-12.6,2.7-1.5,3.2-4.7,28.2-4.7,32.1,0,2.8.7,6.3,1.6,9,2.4,6.6,10.9,8.3,11.7,12.1-2.2-1.6-4.4-3.4-6.8-4.7-7.1-3.6-12.2-2.9-19.6-.6l-3.3-3.6Z"/>
      <path class="cls-48" d="M449.5,581.4c4.1,11.1,8.8,16.3,18.3,23.1-4.6-1.2-17.5,4.5-20.3,1.8l-.3-2.1-.3.8c-.4,1.2-.5,1.9-1.5,2.7-2.6-1.5-4.1-6-5.4-8.7-.4-3.3-1.8-6.1-2.1-9.6,2.7-.5,5-1.3,7.6-2.3,1.3-1.9,2.7-3.8,4-5.7Z"/>
      <path class="cls-20" d="M445.5,587.1c3.2,4.9,0,12.3,1.4,17.9-.4,1.2-.5,1.9-1.5,2.7-2.6-1.5-4.1-6-5.4-8.7-.4-3.3-1.8-6.1-2.1-9.6,2.7-.5,5-1.3,7.6-2.3Z"/>
      <path class="cls-48" d="M421.3,588.4c5.5,1,11.1,1.1,16.7,1,.2,3.4,1.6,6.3,2.1,9.6-.3.9-.5,1.1-.1,2,.7,1.6,1.4,3.1.8,4.9-.2.5-.4.9-.8,1.3-1.4.5-1.9.6-3.3.2-.9-1.2-1.6-2.6-3.1-3.1l-.4.7h-.6c-3.8-5.6-7.9-10.8-11.4-16.6Z"/>
      <path class="cls-52" d="M445.2,480.6s0,0,.1,0c6.7-1.5,15.9-.5,21.6,3.3,6.6,4.4,7.5,9.1,9,16.3,1.2-.9,2.3-.8,3.7-.9,1.7.7,2.9,1.1,4,2.6l-.3.6c-.9-.5-1.9-1.1-2.8-1.6-1.2,0-3.5,0-4.4,1-3.7,4.7-1.8,7.1-8.6,12.8-3.5,2.4-7.7,3.8-11.9,4.3-7,1-14.9-.5-20.5-5-4-3.1-6.6-7.6-7.1-12.6-.6-5.1.4-10.5,3.7-14.5,3.2-3.9,8.5-5.9,13.4-6.3Z"/>
      <path class="cls-52" d="M501.2,528.2c.3,0,.6,0,.9-.1,6.9-.7,13.6.6,19,5.2,3.5,3,6.1,7.2,6.4,11.9.3,4.3-1.5,8.5-4.3,11.7-4.8,5.4-11.6,7.2-18.6,7.7-8.2,0-14.7-2.4-22.3-5.1-2.3-2.5-4.2-5-6.1-7.8.2-4.8.6-7.8,3.4-11.8,5-7,13.4-10.3,21.6-11.6Z"/>
      <path class="cls-52" d="M414.3,534c3.9,0,7.8.4,11.2,2.4,3.9,2.3,7,6,8,10.5.8,3.6,0,7.4-2.1,10.5-3.4,4.8-8.6,5.7-14,6.7-8-1.2-12.9-2.5-18.6-8.5-.5-1.9-1.3-3.9-1.4-5.9-.3-3.4.8-7.1,3-9.7,3.6-4.2,8.7-5.6,14-6Z"/>
      <path class="cls-54" d="M644.3,375.2c4.2,3.3,12.3,8.3,14.5,13.2,2,1.1,4,2.2,5.7,3.6,4.4,3.6,25.6,24.2,27.1,28.1,0,.2,0,.3.1.5l-2.2-1.4.3,2c14.5,6.6,38.2,46.3,45.5,60.6,4.8,9.4,9,19.1,12.6,29.1,14.8,39.9,18.2,80.5,13.5,122.7l-.8-.3c-.6-1.3-.7-2.3-.8-3.7-1.4-18.7-11.8-40.9-25.9-53-20.1-17.2-47.4-27.7-74-25.7l-.7-.3c-1.8.5-3.7,1-5.5,1.7-3.8,1.2-7.5,2.4-11.2,3.7l-1.1-.6c-.2,1.8-.1,3.5-.3,5.3l-1.1,2.2-1-.2c-2.2,3.8-4.3,5.3-8,7.5l-.3,2.2c-4.3,1.5-7.9,7.4-10,11.2-.7-1.5-.9-3.2-1.1-4.8h-.2c-3.6-29.4-21.8-63.1-42.6-83.8-.8-1-1.2-1.6-1.5-2.8l-2.5-3.7c1.6-10.4,4.4-21.4,9-30.9,2.4-6,5.4-11.5,9-16.8l1.3-2c-3.4-3.3-15.7-14.7-17.5-18.1,1.5-2.9,3.5-5.6,5.4-8.3-1.7-1.3-3.3-2.6-4.7-4.1l2.9-3.9c2.8-2.8,5.8-5.4,9-7.8,15.6-11.7,28.5-15.3,47.5-16.5,3.4-.2,6-1.4,9.5-.9.9.1.8,0,1.6-.3-.3-1.4-.9-2.5-1.5-3.8Z"/>
      <path class="cls-34" d="M592.2,438.8l3.7-4.6c.2,3.1.3,6-.2,9.1,5.2,6.4,11.1,12.2,16,18.8,20.2,26.8,30.7,59.6,29.9,93.1-.2,1.8-.1,3.5-.3,5.3l-1.1,2.2-1-.2c-2.2,3.8-4.3,5.3-8,7.5l-.3,2.2c-4.3,1.5-7.9,7.4-10,11.2-.7-1.5-.9-3.2-1.1-4.8h-.2c-3.6-29.4-21.8-63.1-42.6-83.8-.8-1-1.2-1.6-1.5-2.8l-2.5-3.7c1.6-10.4,4.4-21.4,9-30.9,2.4-6,5.4-11.5,9-16.8l1.3-2Z"/>
      <path class="cls-15" d="M575.5,492.2l.2-3.6c1.3-.9,1.5-.6,3-.3,3,.6,5.7,2,8.9,2.5,5.5,5.2,25.5,23.4,32.2,23.3.2,0,.4,0,.6,0-.1-1-.3-1.9,0-2.9,5.9,14.5,9.4,28.4,10.9,44.1,0,2.8,0,5.7.2,8.5l-.2,6.4-.3,2.2c-4.3,1.5-7.9,7.4-10,11.2-.7-1.5-.9-3.2-1.1-4.8h-.2c-3.6-29.4-21.8-63.1-42.6-83.8-.8-1-1.2-1.6-1.5-2.8Z"/>
      <path class="cls-31" d="M619.8,578.7c2.9-5.5,6.9-11,11.7-15l-.2,6.4-.3,2.2c-4.3,1.5-7.9,7.4-10,11.2-.7-1.5-.9-3.2-1.1-4.8Z"/>
      <path class="cls-4" d="M582,457.6c1.3,1,2.9,2.1,4.5,2.6,2.5,6.6,8.6,9.5,12.7,14.8,8.4,11.2,15.5,23.3,21.1,36.1-.2,1,0,1.9,0,2.9-.2,0-.4,0-.6,0-6.7,0-26.7-18.2-32.2-23.3-3.1-.6-5.9-1.9-8.9-2.5-1.5-.3-1.8-.5-3,.3l-.2,3.6-2.5-3.7c1.6-10.4,4.4-21.4,9-30.9Z"/>
      <path class="cls-22" d="M590.9,440.7c.8.6,2.2,1.2,2.3,2.2.3,1.9-5.8,13.1-6.8,17.2-1.6-.5-3.2-1.5-4.5-2.6,2.4-6,5.4-11.5,9-16.8Z"/>
      <path class="cls-22" d="M631.2,555.2c.6,2.1,1.2,4.2,1.7,6.3.1,0,.2-.2.3-.3,1.7-1.4,4.5-3.3,6.8-3.2l-.2.7c-.3,1.2-.6,2.5-.6,3.8-2.2,3.8-4.3,5.3-8,7.5l.2-6.4c-.2-2.8-.2-5.7-.2-8.5Z"/>
      <path class="cls-28" d="M644.3,375.2c4.2,3.3,12.3,8.3,14.5,13.2,2,1.1,4,2.2,5.7,3.6,4.4,3.6,25.6,24.2,27.1,28.1,0,.2,0,.3.1.5l-2.2-1.4.3,2c-.1,0-.3,0-.4,0-6.1-1.3-11.9-4.2-18-5.4-16.5-3.4-41,.3-55.1,9.4-2.7,1.8-5.6,3.9-8.6,5.1-1.5-1.2-3-2.2-4.7-3.2-1,1-2.1,1.9-3,3l-.4.2-3.6,4.2-3.7,4.6c-3.4-3.3-15.7-14.7-17.5-18.1,1.5-2.9,3.5-5.6,5.4-8.3-1.7-1.3-3.3-2.6-4.7-4.1l2.9-3.9c2.8-2.8,5.8-5.4,9-7.8,15.6-11.7,28.5-15.3,47.5-16.5,3.4-.2,6-1.4,9.5-.9.9.1.8,0,1.6-.3-.3-1.4-.9-2.5-1.5-3.8Z"/>
      <path class="cls-13" d="M644.3,375.2c4.2,3.3,12.3,8.3,14.5,13.2-23-4.6-45.7-1.4-65.4,11.8-3.3,2.2-6.5,4.8-9.2,7.7-1.3,1.4-2.9,2.7-3.9,4.3h-.3c-1.7-1.2-3.3-2.5-4.7-4l2.9-3.9c2.8-2.8,5.8-5.4,9-7.8,15.6-11.7,28.5-15.3,47.5-16.5,3.4-.2,6-1.4,9.5-.9.9.1.8,0,1.6-.3-.3-1.4-.9-2.5-1.5-3.8Z"/>
      <path class="cls-13" d="M603.3,426.4c12.6-9.9,28.9-16,44.9-17.7,12.8-1.4,31.1,2.2,41.4,10.4l.3,2c-.1,0-.3,0-.4,0-6.1-1.3-11.9-4.2-18-5.4-16.5-3.4-41,.3-55.1,9.4-2.7,1.8-5.6,3.9-8.6,5.1-1.5-1.2-3-2.2-4.7-3.2l.3-.4Z"/>
      <path class="cls-46" d="M580.1,412.4h.3c6.3,5.4,13.9,11.1,19.1,17.6l-3.6,4.2-3.7,4.6c-3.4-3.3-15.7-14.7-17.5-18.1,1.5-2.9,3.5-5.6,5.4-8.3Z"/>
      <path class="cls-53" d="M584.3,407.9c4.4,6.9,16.5,10.8,19,18.5l-.3.4c-1,1-2.1,1.9-3,3l-.4.2c-5.2-6.5-12.8-12.2-19.1-17.8,1-1.6,2.5-3,3.9-4.3Z"/>
      <path class="cls-33" d="M603,426.8c1.7,1,3.2,2,4.7,3.2,36,34.9,50,70.9,51.7,120.4-1.8.5-3.7,1-5.5,1.7-3.8,1.2-7.5,2.4-11.2,3.7l-1.1-.6c.8-33.5-9.7-66.3-29.9-93.1-4.9-6.6-10.7-12.4-16-18.8.5-3.1.4-6,.2-9.1l3.6-4.2.4-.2c.9-1.1,2-2,3-3Z"/>
      <path class="cls-3" d="M603,426.8c1.7,1,3.2,2,4.7,3.2,36,34.9,50,70.9,51.7,120.4-1.8.5-3.7,1-5.5,1.7-.5-35.2-8.5-66.8-30-95.3-7.2-9.6-15.7-18.2-23.9-26.9.9-1.1,2-2,3-3Z"/>
      <path class="cls-42" d="M690.5,485.9c1.2-.7,2.7-.7,3.9,0,1.2.7,1.9,2.1,1.8,3.5-.1,1.4-1,2.6-2.3,3.2-1.8.8-3.9,0-4.8-1.7-.9-1.8-.3-3.9,1.4-4.9Z"/>
      <path class="cls-34" d="M285.1,419.6c.5-.4.9-.8,1.4-1.2,30.7-26,74.6-42,114.3-46.2,9.4-1,18.8-.9,28.3-.9,5.5,0,11.1-.2,16.5.2l2.2.5c0,7.2,0,14.6-1,21.7-1.6,0-4.3-.5-5.6.5-.2.2-.4.4-.5.6-.3,10.9-.4,21.8-.3,32.7-41.6-2.4-77.1,2.9-114.1,23.2-7,3.8-18.6,15.2-24,17.2-1.7.2-2.4,1.7-3.5,3l-.2-3.4-.5.2v.2c-.1,0,0,4.5,0,4.5.5,5.1,1,10.2,1.3,15.3-11.1,10.6-21.6,22.8-28.4,36.6-3,6.1-4.9,13-8.7,18.6-.2,6.2-1.8,12.5-2.4,18.7-.5,5.2,0,11-1.1,16-1.6-2.7-2.8-5.6-4.1-8.4-.9-1.8-1.7-3.7-2.5-5.6-1.1-1.5-2.3-3-3.5-4.5-3.4-2.3-7.1-4.2-11-5.5-.5-2.2-1.5-4.6-2.3-6.8-5.1-15.4-11-43.4-6.4-59.4.3-3,1.2-5.9,2-8.9l1-5.1c4.6,2.6,8.7,4.5,11.6,9.1,7.3-25.6,20.3-43.9,39.8-61.9l1.6-1Z"/>
      <path class="cls-22" d="M295,437.7c5.1-5.2,10.7-9.9,16.7-14.1,7.7-5.4,16-9,24.6-12.7,25.3-10.7,41.8-14.4,69-16.8,12.3-1.1,23-2,35.2.2l.2.5c-.3,10.9-.4,21.8-.3,32.7-41.6-2.4-77.1,2.9-114.1,23.2-7,3.8-18.6,15.2-24,17.2-2-10.3-4.2-20.2-7.4-30.2Z"/>
      <path class="cls-9" d="M254.2,498.8c7.8-21.7,18.9-42.4,36.9-57.5,1.6,6.9,3.9,20.8,6.8,26.6v4.5c.6,5.1,1,10.2,1.4,15.3-11.1,10.6-21.6,22.8-28.4,36.6-3,6.1-4.9,13-8.7,18.6-.2,6.2-1.8,12.5-2.4,18.7-.5,5.2,0,11-1.1,16-1.6-2.7-2.8-5.6-4.1-8.4-.9-1.8-1.7-3.7-2.5-5.6,1.4-2.8-1.7-18.9-2-23.2-.7-11.7,0-25.4,3.6-36.7.9,2.4,1.7,4.7,2.6,7.1.3-3.9-2.1-8-2.2-12Z"/>
      <path class="cls-21" d="M298.1,472.4c.5,5.1,1,10.2,1.3,15.3-11.1,10.6-21.6,22.8-28.4,36.6-3,6.1-4.9,13-8.7,18.6-1.3-3.7-1.9-9-2-13,.7-1.5.4-1.9,0-3.5,6-18.4,21.3-43.2,37.7-54.1Z"/>
      <path class="cls-50" d="M254.7,569.2c.6-.9.7-2.1.8-3.1,0-2.4-1-4.6-1-7,0-6.1,1.7-24.5,5-29.4l.8.3c.1,4,.7,9.3,2,13-.2,6.2-1.8,12.5-2.4,18.7-.5,5.2,0,11-1.1,16-1.6-2.7-2.8-5.6-4.1-8.4Z"/>
      <path class="cls-33" d="M231.1,478.6l1-5.1c4.6,2.6,8.7,4.5,11.6,9.1-.5,1.7-.4,5.4-1.1,6.6-1.3,19.2-1.7,38.1,3.5,56.9.9,2.6,4.2,9.7,3.3,12.1-.2.4-.4.6-.6,1-3.4-2.3-7.1-4.2-11-5.5-.5-2.2-1.5-4.6-2.3-6.8-5.1-15.4-11-43.4-6.4-59.4.3-3,1.2-5.9,2-8.9Z"/>
      <path class="cls-9" d="M231.1,478.6l1-5.1c4.6,2.6,8.7,4.5,11.6,9.1-.5,1.7-.4,5.4-1.1,6.6,0-.9,0-1.9-.3-2.9-.9-3.4-7.2-6-10.1-7.5-.7,2.9-1.4,5.8-2.3,8.6h-.9c.3-3,1.2-5.9,2-8.8Z"/>
      <path class="cls-26" d="M286.8,419.5c3.3,5.5,6.4,12.1,8.2,18.3,3.2,10,5.4,19.9,7.4,30.2-1.7.2-2.4,1.7-3.5,3l-.2-3.4-.5.2v.2c-3.1-5.7-5.3-19.7-7-26.6-1.4-6-5.6-12.1-6.2-18-.2-1.7.8-2.6,1.8-3.9Z"/>
      <path class="cls-22" d="M253.8,503.8c-1.9-5.6-8.2-11.6-8.3-17.1h.8c3.1,3.8,5.5,8,7.9,12.2.1,4,2.5,8.1,2.2,12-.9-2.3-1.8-4.7-2.6-7.1Z"/>
      <path class="cls-34" d="M449.9,361c44.8,4.1,89.4,18.9,125,46.9l.5.3c1.5,1.5,3.1,2.8,4.7,4.1-1.9,2.7-3.8,5.4-5.4,8.3,1.8,3.4,14.1,14.8,17.5,18.1l-1.3,2c-3.6,5.4-6.6,10.8-9,16.8-4.6,9.5-7.4,20.4-9,30.9l2.5,3.7c.3,1.3.7,1.8,1.5,2.8-2.7,3.1-1.8,9.6-2.9,13.5l-2.4-2.4c-5.8-5.4-11.7-10.7-17.6-15.9l-2.5-2c-30.2-23.7-66.6-38.2-104.3-44.5.1-5-.6-10.1,0-15.1l-.2-.2c-2.3,0-4.4-.4-6.6-.7-.2-10.9,0-21.8.3-32.7.2-.2.3-.4.5-.6,1.3-1.1,4-.6,5.6-.5.9-7.1,1-14.6,1-21.7l.5-.3,1-10.7h.5Z"/>
      <path class="cls-60" d="M574.7,420.7c1.8,3.4,14.1,14.8,17.5,18.1l-1.3,2c-3.6,5.4-6.6,10.8-9,16.8-4.6,9.5-7.4,20.4-9,30.9l2.5,3.7c.3,1.3.7,1.8,1.5,2.8-2.7,3.1-1.8,9.6-2.9,13.5l-2.4-2.4c-5.8-5.4-11.7-10.7-17.6-15.9l-2.5-2c-.3-4.7-.4-9.4.3-14,1.6.1,2.5-.5,3.9-1.2,2.8-18.8,9.5-35.6,18.6-52.2h.4Z"/>
      <path class="cls-48" d="M572.9,488.5l2.5,3.7c.3,1.3.7,1.8,1.5,2.8-2.7,3.1-1.8,9.6-2.9,13.5l-2.4-2.4c.6-5.9.5-11.8,1.3-17.6Z"/>
      <path class="cls-45" d="M555.8,473c-.8,5.7-1.3,11.4-1.7,17.2l-2.5-2c-.3-4.7-.4-9.4.3-14,1.6.1,2.5-.5,3.9-1.2Z"/>
      <path class="cls-31" d="M447.3,428.6c37.4,4.9,75.5,21.4,104.6,45.6-.7,4.7-.6,9.3-.3,14-30.2-23.7-66.6-38.2-104.3-44.5.1-5-.6-10.1,0-15.1Z"/>
      <path class="cls-13" d="M449.9,361c44.8,4.1,89.4,18.9,125,46.9l.5.3c1.5,1.5,3.1,2.8,4.7,4.1-1.9,2.7-3.8,5.4-5.4,8.3h-.4c-1.7-.4-2.6-1.1-3.9-2.2-35.4-28-78-41-122.2-46.7l1-10.7h.5Z"/>
      <path class="cls-9" d="M574.9,408l.5.3c1.5,1.5,3.1,2.8,4.7,4.1-1.9,2.7-3.8,5.4-5.4,8.3h-.4c-1.7-.4-2.6-1.1-3.9-2.2.8-4,2.4-7,4.4-10.5Z"/>
      <path class="cls-26" d="M440.7,374.5c.2-.3.3-.6.5-.9,1.3-1.7,4-1,5.6-.9-.2,18.5-.3,37.1.2,55.6-2.3-.1-4.4-.6-6.6-1.2-.2-17.5,0-35.1.3-52.6Z"/>
      <path class="cls-31" d="M302.4,467.9c5.4-2,17-13.3,24-17.2,37-20.2,72.5-25.5,114.1-23.2,2.2.4,4.4.7,6.6.7l.2.2c-.6,5,0,10.1,0,15.1l-6.2-.5c-51.3-4.8-98.6,9.4-138.6,41.8l-3.1,2.8c-.4-5.1-.8-10.2-1.3-15.3v-4.5c0,0,0-.2,0-.2l.5-.2.2,3.4c1.1-1.3,1.8-2.8,3.5-3Z"/>
      <path class="cls-45" d="M440.5,427.6c2.2.4,4.4.7,6.6.7l.2.2c-.6,5,0,10.1,0,15.1l-6.2-.5c.1-5.1-.4-10.4-.7-15.5Z"/>
      <path class="cls-45" d="M298,467.9v-.2c.1,0,.7-.2.7-.2l.2,3.4c1.1-1.3,1.8-2.8,3.5-3l.2,17-3.1,2.8c-.4-5.1-.8-10.2-1.3-15.3v-4.5Z"/>
      <path class="cls-29" d="M550,580c.1,0,.3,0,.4,0,11.3-.8,18.8-6.5,30.2,3.1,6,5.1,8,11.7,9.6,19.2,6.4.5,12.4,3.1,16.6,8,1.9,2.2,3.4,4.9,4.8,7.4-.6,3.4-1.1,6.9-2,10.3-3,2.9-5.3,6.1-8.1,9.1-4.9-4.3-10.6-5.4-16.9-6.4,0-.1.1-.3.2-.5,2.4-6,3-12.4.4-18.4-2.4-5.7-7.3-10.1-13-12.4-8.1-3.2-15.1-1.8-22.9,1.4.3-2.6,3.8-2,5-4-.7-2.7-4.6-6.3-6.2-8.9-1.6.6-2.8,2.6-3.9,3.9l-1.1-.4c2.8-3.4,4.7-7.7,6.7-11.6Z"/>
      <path class="cls-41" d="M574,508.5c1.1-4,.2-10.5,2.9-13.5,20.8,20.6,39,54.4,42.6,83.7h.2c.2,1.7.4,3.3,1.1,4.9l-.4,3.8c-2.9,3.3-5.6,8.1-6.7,12.4,0-1.8-.3-3.5-.5-5.3-3.8-34.9-16.9-59.2-39.3-86Z"/>
      <path class="cls-39" d="M619.6,578.7h.2c.2,1.7.4,3.3,1.1,4.9l-.4,3.8c-2.9,3.3-5.6,8.1-6.7,12.4,0-1.8-.3-3.5-.5-5.3,1.6-5.4,4-10.6,6.3-15.8Z"/>
      <path class="cls-43" d="M348.6,492.8c2.6,1.7,3.4,5.4,4.4,8.1,2.4,1.1,6.3,2.4,8,4.3.7.8.5,1.1.4,2.2-1.7,2.2-5.4,3.4-8,4.5-1.6,3.6-2.2,8.1-5,11-2-3-3.3-6.7-4.8-10-2.2-1-6.8-2.4-8-4.7-.5-.9-.1-1.2.2-2.2,2.2-2.3,5.7-3.4,8.6-4.7,1.2-3,2.5-5.9,4.2-8.6Z"/>
      <path class="cls-13" d="M307.5,539c3-.6,5.9,1.2,6.6,4.2s-1,5.9-3.9,6.8c-2,.6-4.1,0-5.6-1.4-1.5-1.5-2-3.6-1.4-5.6.6-2,2.2-3.5,4.3-3.9Z"/>
      <path class="cls-43" d="M569.3,534.2c2.3-.3,4.5,1.2,4.9,3.6.4,2.3-1.1,4.5-3.4,5-1.6.3-3.2-.2-4.2-1.4-1-1.2-1.3-2.9-.8-4.4.6-1.5,1.9-2.5,3.5-2.8Z"/>
      <path class="cls-13" d="M382.4,474.1c1-.3,2,0,2.8.8.7.7,1,1.8.6,2.8-.3,1-1.1,1.7-2.1,1.9-1.5.3-3-.6-3.3-2.1-.3-1.5.6-3,2.1-3.4Z"/>
      <path class="cls-30" d="M243.7,585.7c2.1,0,4.3-.3,6.3.3,3.5.4,7.4,1.3,10.9.4,3.6,4.2,6.5,9.2,9.5,13.7,3.8,6,10.3,14.7,15.1,20,6,10.1,25.3,31.1,35.6,36.1l.6.8c1.3,2.6,3.4,4.2,5,6.6,7.5,5.5,15.8,11.3,24.3,15-1.9,1.3-4,3.2-6,4.1v.4c-3.5,5.4-6.3,11.3-8.9,17.2-9.4,18.6-21.5,41.3-25.4,61.8-5.8,18.3-6.2,36.5-6.2,55.5.4,6.8,3,13,3.8,19.6-8.3-2.9-16.4-6.7-24.3-10.5-39-18.3-74.3-43.4-104.4-74.2-9-9.1-18.5-19.2-25.3-30.1-.9-5.3-2.7-10.7-4.1-15.9-1.3-1.5-1.9-2.7-2.2-4.6-2.6-14.6,2.3-43.1,9.1-56.6,1.9-3.7,4.8-7.2,7.2-10.6,8.2-11,18.6-21.6,30.2-29.3,4-1.5,8-4.7,11.8-6.8,12.1-6.5,23.9-10.9,37.5-13Z"/>
      <path class="cls-9" d="M164.1,634.8l.4.5c7.5,9.6,13.1,20.8,20.5,30.5,25.2,33.2,60,63.1,96.9,82.4,5.1,2.7,24.7,12.9,28.8,13.9-5.8,18.3-6.2,36.5-6.2,55.5.4,6.8,3,13,3.8,19.6-8.3-2.9-16.4-6.7-24.3-10.5-39-18.3-74.3-43.4-104.4-74.2-9-9.1-18.5-19.2-25.3-30.1-.9-5.3-2.7-10.7-4.1-15.9-1.3-1.5-1.9-2.7-2.2-4.6-2.6-14.6,2.3-43.1,9.1-56.6,1.9-3.7,4.8-7.2,7.2-10.6Z"/>
      <path class="cls-13" d="M148.6,695.4c8.7,7.7,15.7,21.9,24.3,31.3,16.4,18,33.9,33.1,53.1,47.9,4.9,3.8,9.7,8,14.9,11.4,5.6,3.7,11.7,6.6,17.5,9.8,8.4,4.6,16.3,9.2,25,13.1,6.7,3,13.8,6.7,20.9,8.5.4,6.8,3,13,3.8,19.6-8.3-2.9-16.4-6.7-24.3-10.5-39-18.3-74.3-43.4-104.4-74.2-9-9.1-18.5-19.2-25.3-30.1-.9-5.3-2.7-10.7-4.1-15.9-.6-3.7-1.3-7.4-1.4-11.1Z"/>
      <path class="cls-3" d="M243.7,585.7c2.1,0,4.3-.3,6.3.3,3.5.4,7.4,1.3,10.9.4,3.6,4.2,6.5,9.2,9.5,13.7,3.8,6,10.3,14.7,15.1,20,6,10.1,25.3,31.1,35.6,36.1l.6.8c1.3,2.6,3.4,4.2,5,6.6,7.5,5.5,15.8,11.3,24.3,15-1.9,1.3-4,3.2-6,4.1-33.4-20.3-56.8-35.4-81.8-66.5-7.4-9.2-15-19.6-19.5-30.6Z"/>
      <path class="cls-12" d="M250,585.9c3.5.4,7.4,1.3,10.9.4,3.6,4.2,6.5,9.2,9.5,13.7,3.8,6,10.3,14.7,15.1,20,6,10.1,25.3,31.1,35.6,36.1l.6.8c1.3,2.6,3.4,4.2,5,6.6-5.2-2.7-9.7-7.4-14.6-10.7-4.4-3-9.1-5.4-13.4-8.7-20.3-15.5-34.9-37.1-48.8-58.3Z"/>
      <path class="cls-42" d="M237.1,649.5c1.2,0,2.6-.1,3.8,0,2.7.4,6.9,3,8.3,5.4.8,1.4.8,2.2.4,3.7-1.1,1.4-2,1.8-3.7,2.4-3.7.5-6.2.1-9.3-2.2-1.8-1.4-2.3-2.8-2.5-4.9.5-2.1,1.5-2.9,2.9-4.3Z"/>
      <path class="cls-40" d="M342.3,302.5c15.4-3.1,31.5-4.2,47.1-5.1,79.7-4.2,162,14.3,228.9,58.8,8.6,5.7,18.6,11.8,26,18.9.6,1.3,1.2,2.4,1.5,3.8-.8.3-.7.4-1.6.3-3.5-.5-6.1.6-9.5.9-19.1,1.2-32,4.8-47.5,16.5-3.2,2.4-6.2,5-9,7.8l-2.9,3.9-.5-.3c-35.7-28-80.3-42.8-125-46.9h-.5c-3.3-1.3-9-.8-12.6-.9-28.7-.8-51.3,2.2-79.5,7.5,5.3-6,9.8-12.6,11.5-20.5,3.4-15.5-6.8-22.1-16.4-31.6-3.6-3.6-7-8.2-9.8-12.5l-.2-.4Z"/>
      <path class="cls-12" d="M449.9,361c.4-2,.3-2.3,1.9-3.5,4.5-.6,11.1,1.2,15.7,1.8,39.2,5.4,79,21.4,110.8,44.9l-2.9,3.9-.5-.3c-35.7-28-80.3-42.8-125-46.9Z"/>
      <path class="cls-12" d="M564.4,369.4c1.6,0,3.3-.2,4.8.3,1.5.5,3.5,1.4,4.2,2.9.8,1.7.5,2.4-.2,4-1.6.3-3,.4-4.6.2-2-.4-3.3-1.1-4.5-2.8-.6-1.8-.4-2.8.3-4.6Z"/>
      <path class="cls-24" d="M330.6,999.7c.2-3,0-6.6,2.6-8.8,1.4-1.2,3.2-1.4,4.9-1.5,10-1,20.7-.3,30.7-.3s19.9-.9,29.2.4c2.6.4,6.8.8,8.4,3.1,2.9,4,2.1,11.3,2.2,16.1l1.3,50.4c.2,7-.3,14.4.6,21.3,3.1,0,9.9-.8,12.2,1.3,2.7,2.4,1.8,12.8,1.8,16.5,0,9.3.6,19.1-.3,28.3-.1,1.9-.2,4.2-.9,6.1-1,2.3-3.2,3.4-5.3,4.2-4.6,1.8-14.4,2-18.8-.2-7.8-4-.7-14.7-2.8-20.7-1.3-.9-1.9-1-3.4-1.1-6.3-.5-12.9,0-19.2,0-14.5.1-29,0-43.6,0-.4,3.8-.9,7.6-1.7,11.4.3,2,0,5.5-1.1,7.2-1.4,2.4-4.4,3.6-7,4.2-4.7,1-12.7,1.1-16.8-1.8-2-1.4-3.4-3.4-3.7-5.8-.4-3,.2-6.5,2-8.9,1.4-9.8-2-30,1.4-38.1,3-3,6.9-2.4,10.8-2.4,14.3-21.7,14.8-55.8,16.6-81Z"/>
      <path class="cls-43" d="M330.6,999.7c.2-3,0-6.6,2.6-8.8,1.4-1.2,3.2-1.4,4.9-1.5,10-1,20.7-.3,30.7-.3s19.9-.9,29.2.4c2.6.4,6.8.8,8.4,3.1,2.9,4,2.1,11.3,2.2,16.1-1.4-.2-1.9-.3-3-1.3-.4-1-.8-2.1-1.4-3.1-3.7-6.1-24.6-5.1-31.3-4.3-5.6.7-11.4,2.4-17.1,2.5-2.8,0-5.1-2.6-7.9-2.9-5.7-.6-11.7,1.2-17.3-.1Z"/>
      <path class="cls-22" d="M331.4,1106.9c22-.3,43.9-.3,65.9,0,0,5.1-1.7,16.3,1.9,20,3.4,3.5,10.7,2.7,15.2,2.6,3.9-.1,6.6-.4,9.8-3-.1,1.9-.2,4.2-.9,6.1-1,2.3-3.2,3.4-5.3,4.2-4.6,1.8-14.4,2-18.8-.2-7.8-4-.7-14.7-2.8-20.7-1.3-.9-1.9-1-3.4-1.1-6.3-.5-12.9,0-19.2,0-14.5.1-29,0-43.6,0,.4-2.7.8-5.4,1.3-8Z"/>
      <path class="cls-22" d="M301.8,1121.1c.3,2.4.2,4.6,2.3,6.2,4.5,3.5,12.6,2.7,17.8,1.8,2.7-.4,4.4-1.3,6.6-3,.3,2,0,5.5-1.1,7.2-1.4,2.4-4.4,3.6-7,4.2-4.7,1-12.7,1.1-16.8-1.8-2-1.4-3.4-3.4-3.7-5.8-.4-3,.2-6.5,2-8.9Z"/>
      <path class="cls-26" d="M357.7,1016.9c7.7,0,15.5-.2,23.2,0,0,3.2.2,6.5,0,9.7-.2,17.9.7,35.9-.2,53.8-11.7.7-23.7.3-35.5.2,6.7-17.7,8.8-36.8,11.5-55.4l1-8.2Z"/>
      <path class="cls-22" d="M357.7,1016.9c7.7,0,15.5-.2,23.2,0,0,3.2.2,6.5,0,9.7-.3-.1-.6-.3-.9-.4l-.5-.2c-6.2-2.4-16.1-1.1-22.9-.9l1-8.2Z"/>
      <path class="cls-8" d="M548.6,991.1c5-3.5,16.7-2.7,22.6-1.7,2.9.5,4.7,1.6,6.8,3.6,4,5.5,6.7,12.2,9.7,18.3,6.1,12.4,12.1,25.3,19,37.3l17.8-36.8c3.1-6.2,5.9-13.5,10.1-19,1.1-1.5,2.4-2.5,4.1-3.1,3.6-1.3,19.5-1.3,23,.3,1.1.5,2.9,1.9,3.2,3.1,2.1,6.9,1.4,16.7,1.7,24l1.6,43.5c.5,12.3,1.7,24.8,1.7,37.1,0,2.5,0,4.9-.9,7.3.3.5.3.6.4,1.3.3,2-.3,4.3-1.7,5.8-2.4,2.5-7.1,3.1-10.4,3.3-5,.2-12.3.2-16.1-3.7-3.9-4-.7-16.6-.6-21.9-.4-12.8-1-35.5-3.6-47.5-7.2,12-11.2,26.4-19.7,37.4-.1.2-.3.4-.4.5,0,.1-.2.2-.2.3-4.7,0-17.2,1.4-20.9-1.8-6.1-5.5-16.1-28.3-21.4-36.9-.7,12.5-1.1,24.9-1.3,37.4-.1,7.2.4,15.6-.8,22.6-.2,1.4-.9,2.4-1.6,3.6l.9,1c.4,1.8.8,3-.3,4.6-1.7,2.6-5.6,3.5-8.5,4-5.6.9-14.5,1.1-19.3-2.6-1.5-1.2-2.7-2.9-2.9-4.8-.3-3,1-7.7,2.9-10,1.1-7.7.4-16.6.7-24.5l2.3-53.6c.3-8.7-1.2-20.3,2.1-28.4Z"/>
      <path class="cls-22" d="M543.5,1097.6c.2,2.8.4,4.8,2.8,6.7,4.9,3.9,15.1,3.2,20.9,2.3,1.2-.2,2.3-.6,3.4-1.1l.9,1c.4,1.8.8,3-.3,4.6-1.7,2.6-5.6,3.5-8.5,4-5.6.9-14.5,1.1-19.3-2.6-1.5-1.2-2.7-2.9-2.9-4.8-.3-3,1-7.7,2.9-10Z"/>
      <path class="cls-22" d="M640.6,1089.8c.4,4.1,0,12.1,3.3,15,3.7,3.2,15.7,2.4,20.6,1.9,1.7-.2,3-.7,4.4-1.6.3.5.3.6.4,1.3.3,2-.3,4.3-1.7,5.8-2.4,2.5-7.1,3.1-10.4,3.3-5,.2-12.3.2-16.1-3.7-3.9-4-.7-16.6-.6-21.9Z"/>
      <path class="cls-43" d="M548.6,991.1c5-3.5,16.7-2.7,22.6-1.7,2.9.5,4.7,1.6,6.8,3.6-.2,0-.4.2-.5.3-.5.3-.3.2-.8.5-3.4,1.6-20.4.2-24.2-1.3-1.2-.5-2.5-.9-3.8-1.3Z"/>
      <path class="cls-2" d="M202.9,993.3c17.6-7.3,40.5-10,58.6-2.6,13.1,5.1,21.7,15.1,27.3,27.8,7.5,17.2,9.1,37.3,2.2,54.9-.4,1.1-.9,2.1-1.4,3.2,1.2,3.4.4,6.2-1.1,9.3-6.4,13.4-16.7,23-30.9,27.8-15.9,5.4-39.6,4.4-54.9-3.1-3.8-1.8-7.6-4.7-9.1-8.8-.9-2.5-.4-5.5.3-8,2.2-6.8,7.5-16.6,12.4-21.7,1.9,1.4,3.8,2.7,5.8,4.1,8.7,5.8,19.3,7.9,29.5,5.7,7.6-1.7,12.8-6.1,16.9-12.5-8-2.9-20.1-.2-28.7-.6-2.9-.1-6.3-.8-8.3-3.2-3.2-3.9-1.3-11-.9-15.5.1-3.2-.3-10.5,2.2-12.7,4.6-4.2,27.3-2.5,34.2-2.4-1.6-3.3-6.4-6.8-9.7-8.5-11.1-5.5-23.7-2.5-34.8,1-2.6.8-7.1,2.7-9.6,1.2-2.6-1.5-5-8.9-5.6-11.9-.7-3.2-1.1-7,.8-9.9-.7-2.3-1.5-4.6-1-7.1.7-3.2,3.1-4.9,5.6-6.7Z"/>
      <path class="cls-22" d="M289.6,1076.6c1.2,3.4.4,6.2-1.1,9.3-6.4,13.4-16.7,23-30.9,27.8-15.9,5.4-39.6,4.4-54.9-3.1-3.8-1.8-7.6-4.7-9.1-8.8-.9-2.5-.4-5.5.3-8,2,4,5.5,6.5,9.3,8.6,15.5,8.3,38,8.7,54.7,3.4,15-4.7,24.5-15.7,31.6-29.3Z"/>
      <path class="cls-22" d="M198.3,1007c1.7,4.2,3.3,10.6,7.2,13.3,3.8.9,10.1-2.3,13.9-3.4,16.4-4.6,32.6-1.4,42,13.5.8,1.2,1.7,2.4,1.7,3.9-1.5,1-4.1.6-5.9.6-1.6-3.3-6.4-6.8-9.7-8.5-11.1-5.5-23.7-2.5-34.8,1-2.6.8-7.1,2.7-9.6,1.2-2.6-1.5-5-8.9-5.6-11.9-.7-3.2-1.1-7,.8-9.9Z"/>
      <path class="cls-22" d="M258.7,1069.5c-8-2.9-20.1-.2-28.7-.6-2.9-.1-6.3-.8-8.3-3.2-3.2-3.9-1.3-11-.9-15.5,0,2.8-.2,6,2.1,8.1,4.6,4.2,32.1,2.3,39.7,2.6-1.2,2.9-2.2,6-3.9,8.6Z"/>
      <path class="cls-43" d="M202.9,993.3c17.6-7.3,40.5-10,58.6-2.6-4.1.3-8.2-2.6-11.8-2.1-.5,1.1-1,2-1,3.2,2.3.7,6.9-.4,8.1,1.2-7.6.3-15.3-1.7-23-1.6-4.9.1-9.9.7-14.7,1.5-3.7.7-8.9,2.5-12.6,2.3-1.2,0-2.2-.9-3.2-1.6-.2-.1-.3-.2-.5-.3Z"/>
      <path class="cls-27" d="M441.7,1091.6c0-12.8-1.4-90.9,1.2-96.5,1.1-2.5,3.6-4.1,6.1-5,4.7-1.7,69.2-1.7,73.4.3,3.8,4.8,1.9,16.9,1.7,22.7.3,3,.2,6.8-2,9.2-3.2,3.5-8.4,3.6-12.8,3.6-6.5,0-32-1.8-36.1.5-.4,1.5-.5,2.9-.6,4.5,0,2-.2,2.6,1.2,4.1,9.4,3.1,35.3-3.6,40.4,4.4,1.2,5.3.3,12.1.2,17.7.4,2.6.5,5.8-1,8.1-1.8,2.5-5.3,3.6-8.2,4-10.5,1.3-21.5-.2-32.1-.3-.1,2.5-.2,5-.4,7.5v2.8c6,5,42.5-2,50.1,2.7,2,1.2,2.3,3.3,2.4,5.5.3,5,.4,11.7-.9,16.5.2,1.5.5,3.1.3,4.6-.4,3.3-2.8,4.9-5.2,6.6-14.7.4-29.4.2-44.1.2-8.8,0-18.1.7-26.8-.3-2.6-.3-5.5-.8-7.5-2.5-3.7-6.6.3-13.9.8-20.8Z"/>
      <path class="cls-22" d="M519.3,1114.9c-14.7.4-29.4.2-44.1.2-8.8,0-18.1.7-26.8-.3-2.6-.3-5.5-.8-7.5-2.5-3.7-6.6.3-13.9.8-20.8,0,4.1-.9,10.1,2.1,13.3,1.2,1.2,2.8,1.4,4.4,1.5,8.7.9,18,.3,26.8.3h41.6c3.4,0,5.1-.7,7.7-2.9.2,1.5.5,3.1.3,4.6-.4,3.3-2.8,4.9-5.2,6.6Z"/>
      <path class="cls-22" d="M472.5,1017.6c11.2-.5,38,1.3,46.7-1.2,2-.6,3.4-1.9,4.9-3.3.3,3,.2,6.8-2,9.2-3.2,3.5-8.4,3.6-12.8,3.6-6.5,0-32-1.8-36.1.5-.4,1.5-.5,2.9-.6,4.5-.2-4.4,0-8.8,0-13.2Z"/>
      <path class="cls-22" d="M514.3,1057c.4,2.6.5,5.8-1,8.1-1.8,2.5-5.3,3.6-8.2,4-10.5,1.3-21.5-.2-32.1-.3-.1,2.5-.2,5-.4,7.5,0-5-.2-10,.2-14.9,11.1-.7,22.4.5,33.4-.5,3.8-.3,5.6-.9,8.1-3.9Z"/>
      <path class="cls-18" d="M235.4,546.9c.8,2.2,1.8,4.5,2.3,6.8,3.9,1.2,7.6,3.2,11,5.5,1.2,1.5,2.4,2.9,3.5,4.5.8,1.9,1.6,3.8,2.5,5.6,1.3,2.8,2.5,5.7,4.1,8.4l2.7,6.7c-.1.2-.2.4-.3.6,0,.1-.6.5-.7.6l.4.8c-3.5.9-7.4,0-10.9-.4-2-.6-4.2-.3-6.3-.3-13.6,2.1-25.4,6.5-37.5,13-3.9,2.1-7.8,5.3-11.8,6.8-11.6,7.6-22,18.2-30.2,29.3-2.4,3.4-5.3,6.9-7.2,10.6-6.8,13.5-11.7,42-9.1,56.6.3,1.9.9,3.1,2.2,4.6,1.4,5.2,3.3,10.6,4.1,15.9-2.9-2.1-4.8-4.9-6.5-8-9.3-10.1-19.8-30.4-25.2-43.1-2.5-2.2-3.9-5.2-4.7-8.4.8-1.3.4-3.1.4-4.6.7-5.3,0-10.8,0-16.1.2-19.9,12.9-42.6,26.6-56.1,4.2-5.6,10.8-10.3,16.1-14.8,14.9-11.3,35.1-22.2,54.2-23,4.4-.9,9-1.3,13.5-1.5,2.3.2,4.7.5,7,0Z"/>
      <path class="cls-44" d="M143.5,595.6c2.2,5.8,13.4,29.4,17.4,32.5-14.7,22-22.2,45.3-17,71.8,1,4.9,3.1,9.6,3.8,14.6-9.3-10.1-19.8-30.4-25.2-43.1,0-.5-.2-1-.2-1.4-3.6-28.1,4.2-52.1,21.3-74.3Z"/>
      <path class="cls-64" d="M228.5,546.8l1.5,6.4c-2.7,0-5.6,0-8.2.4-2.1.1-4.2.2-6.3.6-28.5,6.1-52.8,19-72,41.3-17.1,22.3-24.9,46.2-21.3,74.3,0,.5.1,1,.2,1.4-2.5-2.2-3.9-5.2-4.7-8.4.8-1.3.4-3.1.4-4.6.7-5.3,0-10.8,0-16.1.2-19.9,12.9-42.6,26.6-56.1,4.2-5.6,10.8-10.3,16.1-14.8,14.9-11.3,35.1-22.2,54.2-23,4.4-.9,9-1.3,13.5-1.5Z"/>
      <path class="cls-33" d="M228.5,546.8l1.5,6.4c-2.7,0-5.6,0-8.2.4-2.1.1-4.2.2-6.3.6,3.9-3,7.5-1.8,11.8-3.3l-.3-.6c-3.9-1.5-8.1-1.5-12.1-2.1,4.4-.9,9-1.3,13.5-1.5Z"/>
      <path class="cls-34" d="M202.5,592.8c.3,0,.6,0,.8,0,4.6.2,10.2-6.7,14.9-5.4,0,1.7-.2,2.1-1.5,3.4-6.2,6.2-16.7,7.4-22.5,14.8-11.6,7.6-22,18.2-30.2,29.3-2.4,3.4-5.3,6.9-7.2,10.6-6.8,13.5-11.7,42-9.1,56.6.3,1.9.9,3.1,2.2,4.6,1.4,5.2,3.3,10.6,4.1,15.9-2.9-2.1-4.8-4.9-6.5-8-.7-5-2.8-9.7-3.8-14.6-5.2-26.6,2.3-49.9,17-71.8,10.5-13.5,25.9-28.4,41.7-35.3Z"/>
      <path class="cls-33" d="M247.4,579.9c5.7.5,9,2.7,14.2,4.4-.1.2-.2.4-.3.6,0,.1-.6.5-.7.6l.4.8c-3.5.9-7.4,0-10.9-.4-2-.6-4.2-.3-6.3-.3-13.6,2.1-25.4,6.5-37.5,13-3.9,2.1-7.8,5.3-11.8,6.8,5.8-7.3,16.3-8.6,22.5-14.8,1.2-1.2,1.5-1.7,1.5-3.4-4.7-1.2-10.3,5.7-14.9,5.4-.3,0-.6,0-.8,0,11.7-7.6,25.7-11.2,39.4-12.8h5.4Z"/>
      <path class="cls-46" d="M237.7,553.7c3.9,1.2,7.6,3.2,11,5.5,1.2,1.5,2.4,2.9,3.5,4.5.8,1.9,1.6,3.8,2.5,5.6,1.3,2.8,2.5,5.7,4.1,8.4l2.7,6.7c-5.2-1.7-8.4-3.9-14.2-4.4-3.5-8.7-7.5-17.1-9.7-26.3Z"/>
      <path class="cls-53" d="M235.4,546.9c.8,2.2,1.8,4.5,2.3,6.8,2.2,9.2,6.2,17.5,9.7,26.3h-5.4c-3.8-8.1-8.7-17.1-10.5-26-3.3,0-6.5,0-9.7-.3,2.6-.5,5.5-.4,8.2-.4l-1.5-6.4c2.3.2,4.7.5,7,0Z"/>
      <path class="cls-42" d="M235.4,546.9c.8,2.2,1.8,4.5,2.3,6.8l-7.7-.4-1.5-6.4c2.3.2,4.7.5,7,0Z"/>
      <path class="cls-58" d="M637.4,911.7c-.1-9.2.7-17.5,7.5-24.5,7.3-7.6,17.3-9,27.3-9.1,6.2,0,25.9-1.2,30.8,1.4,1.3,2.3,1.5,5,1.7,7.6.6,8.1,1.1,67.3-.2,72.2-.1.5-.3.9-.5,1.4,0,.6.2,1.2.2,1.8.1,2-.4,4.2-1.8,5.6-2.1,2.2-5.5,2.9-8.4,3-4.1.2-8.7-.7-11.7-3.7-1.7-1.7-2.8-3.9-2.8-6.3,0-2.7,1-7.3,2.9-9.2l.2-5.6c-1.3-1.1-2.9-2.7-4.7-2.6-1.7,0-2.6.9-3.7,2.2-6.7,8.1-5.6,17.8-16.1,24.6-4.9.2-15.8,1.9-19.6-1.6-1.2-1.1-1.8-2.7-1.7-4.3,0-1.8.6-3.6,1.1-5.4,3.1-6.9,7.7-13.5,11.4-20.1-5.1-3.9-10.3-9.2-12.4-15.3-1.3-3.9-1.4-8.3.5-12.1Z"/>
      <path class="cls-22" d="M674.7,935.5l7.8.2v10.5c-1.2-1.1-2.8-2.7-4.6-2.6-1.7,0-2.6.9-3.7,2.2-6.7,8.1-5.6,17.8-16.1,24.6-4.9.2-15.8,1.9-19.6-1.6-1.2-1.1-1.8-2.7-1.7-4.3,0-1.8.6-3.6,1.1-5.4l1.7,1.8c6.7-1.4,14.2.8,21-1.3.1,0,.2,0,.3-.1l.8,1c6-6.2,9.8-17.1,13-25Z"/>
      <path class="cls-46" d="M639.7,961c6.7-1.4,14.2.8,21-1.3.1,0,.2,0,.3-.1l.8,1c-3,2.8-9.3,2.3-13.3,2.2-2.5,0-5.5,0-7.8-1.2-.2-.1-.4-.2-.6-.3-.1,0-.2-.1-.4-.2Z"/>
      <path class="cls-22" d="M682.4,951.8c0,3-.3,6.1,1.9,8.4,2.1,2.1,5.2,3,8.1,2.9,4-.2,7.9-.7,11.5-2.5,0,.6.2,1.2.2,1.8.1,2-.4,4.2-1.8,5.6-2.1,2.2-5.5,2.9-8.4,3-4.1.2-8.7-.7-11.7-3.7-1.7-1.7-2.8-3.9-2.8-6.3,0-2.7,1-7.3,2.9-9.2Z"/>
      <path class="cls-22" d="M637.4,911.7c3,9.7,7.5,14.6,15.3,20.9-1,2.2-2,4.5-3.3,6.6-5.1-3.9-10.3-9.2-12.4-15.3-1.3-3.9-1.4-8.3.5-12.1Z"/>
      <path class="cls-26" d="M659.3,908.7c.2-3.4.6-6.8,3.1-9.4,4.7-4.9,14-3.5,20.1-3.4v9c0,4.3,0,8.7-.2,13-5.6.1-15.4,1.7-19.8-2.5-1.9-1.8-2.8-4.2-3.2-6.7Z"/>
      <path class="cls-22" d="M659.3,908.7c.2-3.4.6-6.8,3.1-9.4,4.7-4.9,14-3.5,20.1-3.4v9c-4.7-1.2-10.1-1.3-14.8-.3h-.5c-3,.7-5.4,2.4-7.9,4.1Z"/>
      <path class="cls-46" d="M553,956c.5-6.5.2-13.2.2-19.7v-34.6c0-5.9-.7-12.8.3-18.5.3-1.9.8-3,2.5-4,3.7-2.1,11.9-1.7,15.7-.6,4.6,4.9,2.6,41.9,2.7,50.6,8.3-14.2,15.7-28.9,23.4-43.5,1.3-2.7,2.6-5.1,4.4-7.5,5.5-.2,17.9-2.2,22.1,1.9,2.2,2.2,1.9,5.9,1.8,8.8,0,11.2,2.3,64.3.2,71.3,0,.4,0,.9,0,1.3,0,2.3.1,4.4-1.6,6.1-2.7,2.6-7.7,3.4-11.3,3.4-3.1,0-6.8-.6-9-3.1-4-4.4.5-9.9.6-14.7,0-.2,0-.4,0-.5-.1-7.2,1.7-21.1-.9-27.1-6.6,3.1-20.8,36.2-30,44.2-6,.8-15.8,2.5-20.9-1.4-1.4-1-2.2-2.5-2.3-4.2-.2-2.8.7-5.8,2-8.2Z"/>
      <path class="cls-22" d="M605.4,912.1c.3,13.5,0,27,0,40.5,0,2.8-.4,5.5,1.8,7.7,2.1,2.1,5.4,2.9,8.3,2.8,3.7-.2,7.1-.5,10.3-2.5l.5-.3c0,.4,0,.9,0,1.3,0,2.3.1,4.4-1.6,6.1-2.7,2.6-7.7,3.4-11.3,3.4-3.1,0-6.8-.6-9-3.1-4-4.4.5-9.9.6-14.7,0-.2,0-.4,0-.5-.1-7.2,1.7-21.1-.9-27.1-6.6,3.1-20.8,36.2-30,44.2-6,.8-15.8,2.5-20.9-1.4-1.4-1-2.2-2.5-2.3-4.2-.2-2.8.7-5.8,2-8.2.5,2.2.9,4.1,2.7,5.6,3.8,1.8,13.5,1.4,17.7.5,2-.5,3.3-2,4.5-3.6,4-5.1,7-11.2,10.2-16.8,5.6-10,11.4-19.9,17.4-29.7Z"/>
      <path class="cls-43" d="M602.1,878.3c5.5-.2,17.9-2.2,22.1,1.9,2.2,2.2,1.9,5.9,1.8,8.8-.6-1.6-1.2-3.2-2-4.7-.5,0-1-.2-1.4-.2-2.6-.3-20-1.1-21.9-.6-.8.3-2.3,1.7-3,2.3,1.3-2.7,2.6-5.1,4.4-7.5Z"/>
      <path class="cls-51" d="M464.7,884.5c.3-2,.6-3.9,2.4-5.1,3.6-2.4,10.4-2.3,14.4-1.2,2,.5,3.5,1.2,4.8,2.9.5,1.5.6,2.8.6,4.4-.5,6.8-.1,13.9-.1,20.7,0,12.8,0,25.7.2,38.5,6.9.7,14.2.3,21.1,0,.4-21,0-42,.2-63l1.7-2.2c1.9-1.2,4-1.3,6.2-1.5,4-.3,10-.4,13.2,2.2,1.4,6.9.8,14.7.7,21.8,0,14.3-.4,28.7,0,43,2.7,0,9.7-.9,11.7.9,3.4,3.1,2,18.2,1.8,23,0,1.6-.2,3.1-.3,4.7.2,1.9.4,4.7-.8,6.3-1.8,2.4-5.8,3.2-8.6,3.5-3.6.3-8.9.3-11.8-2.2-2-3.2-2-7.1-2.1-10.8-10.9-.3-46,2.9-53.9-2-2-1.3-3.5-3.2-3.9-5.5-.6-3.4.6-6.1,2.6-8.8,0-23,1-46.5-.1-69.5Z"/>
      <path class="cls-22" d="M520,970.3c-10.9-.3-46,2.9-53.9-2-2-1.3-3.5-3.2-3.9-5.5-.6-3.4.6-6.1,2.6-8.8.1,2.5.2,5,2.2,6.8,1.1,1,2.1,1.4,3.6,1.6,6.2.9,13,.2,19.3.2,11.1,0,22.1-.1,33.2,0,0,4-.1,8.1,0,12.2,5.6,0,15.3,1,20.2-1.3.2,1.9.4,4.7-.8,6.3-1.8,2.4-5.8,3.2-8.6,3.5-3.6.3-8.9.3-11.8-2.2-2-3.2-2-7.1-2.1-10.8Z"/>
      <path class="cls-43" d="M464.7,884.5c.3-2,.6-3.9,2.4-5.1,3.6-2.4,10.4-2.3,14.4-1.2,2,.5,3.5,1.2,4.8,2.9.5,1.5.6,2.8.6,4.4-.6-1.5-.7-1.8-2.1-2.7-5.3-.3-16-1.4-20.1,1.7Z"/>
      <path class="cls-43" d="M508.3,881.6l1.7-2.2c1.9-1.2,4-1.3,6.2-1.5,4-.3,10-.4,13.2,2.2-2.8,2.6-5.9,2.6-9.6,2.5-3.5,0-8.2-1.5-11.5-1.1Z"/>
      <path class="cls-46" d="M292,958.8c3.6-16.9,9.9-33.6,15.2-50,2.8-8.8,5-18.1,8.5-26.6.6-1.4,1-2.5,2.2-3.4,3.2-1,23-1.5,25.9.2,4.2,2.4,22.3,67.3,24,75.8.5,2.6.5,4.9.3,7.5.8,2.5.2,5-.1,7.6-5.2.5-14,2.3-18.7-.7-4.4-2.8-5.4-8.8-6.6-13.5-8.3-.2-16.6,0-24.8,0-1.2,5.7-3.5,10-7.4,14.2-4.8.7-11.8,1.5-16.4-.3-1.1-.4-2.5-1.4-3-2.6-1-2.5,0-5.8.9-8.3Z"/>
      <path class="cls-22" d="M317.9,947.5h26.4c1.6,5,3,10.4,5.2,15,6.2,0,12.5.3,18.6-.2.8,2.5.2,5-.1,7.6-5.2.5-14,2.3-18.7-.7-4.4-2.8-5.4-8.8-6.6-13.5-8.3-.2-16.6,0-24.8,0-1.2,5.7-3.5,10-7.4,14.2-4.8.7-11.8,1.5-16.4-.3-1.1-.4-2.5-1.4-3-2.6-1-2.5,0-5.8.9-8.3.9,1.5,1.3,2.7,3.1,3.3,4.2,1.5,12.4,1.4,16.3-.8,3.9-2.2,5.1-9.8,6.5-13.8Z"/>
      <path class="cls-26" d="M328,911.2l3-8.1c1.7,4.2,9.1,22,7.9,25.6-1.5.4-2.9.4-4.4.4h-11.9c1.9-6,3.8-11.8,5.4-17.8Z"/>
      <path class="cls-22" d="M328,911.2l3-8.1c1.7,4.2,9.1,22,7.9,25.6-1.5.4-2.9.4-4.4.4-.2-2.5-.6-5.1-1-7.6-.7-4.3-1.8-7.6-5.5-10.2Z"/>
      <path class="cls-49" d="M378.1,882.8c.3-1.5.5-2.4,1.6-3.5,2.5-1.4,6-1.7,8.9-1.6,3.9.1,7.9,0,10.7,3.1.3,9.7-.3,19.6.3,29.3h27c0-6.2-1.9-26.7,2.4-30.7,2.3-2.2,10-1.5,13.2-1.2,1.6.2,3.7.5,4.8,1.7,1.5,1.7,2,72.9,1,78.8,0,.5-.2,1-.3,1.5.6,4-.6,6.3-2.3,9.7-2.6.3-5.1.5-7.7.7-3.6.2-8.2.1-11-2.5-4.1-3.9-1-12.6-.6-17.5.3-3.2.2-6.4.2-9.6l-.4-2c-4-1.8-20.8-1.3-25.6-.5-.5,1.3-.7,2.4-.8,3.8,0,6,.6,12.6-.4,18.5.3,2.6.5,4.8-1.3,6.9-1.8,2.1-4.6,3-7.3,3.2-4.2.4-9.5-.3-12.8-3.2-1.2-1.1-2-2.6-2-4.2,0-2.1.6-4,2-5.6,1.6-6.3.5-15.8.5-22.4v-52.7Z"/>
      <path class="cls-22" d="M399.5,930h27.2c.2,3.7.1,7.5.1,11.2,0,4.8-1.8,15.7,1.5,19.3,2,2.2,5,2.3,7.7,2.3,4.3,0,8.1,0,11.7-2.6.6,4-.6,6.3-2.3,9.7-2.6.3-5.1.5-7.7.7-3.6.2-8.2.1-11-2.5-4.1-3.9-1-12.6-.6-17.5.3-3.2.2-6.4.2-9.6l-.4-2c-4-1.8-20.8-1.3-25.6-.5-.5,1.3-.7,2.4-.8,3.8v-12.3Z"/>
      <path class="cls-22" d="M377.7,957.9c.7,1.7,1.4,3.1,3.2,3.9,3.9,1.6,12.1,1.8,16,.1.5-.2.5-.2.9-.5l.4-.2c.3-.1.5-.3.8-.5.3,2.6.5,4.8-1.3,6.9-1.8,2.1-4.6,3-7.3,3.2-4.2.4-9.5-.3-12.8-3.2-1.2-1.1-2-2.6-2-4.2,0-2.1.6-4,2-5.6Z"/>
      <path class="cls-43" d="M378.1,882.8c.3-1.5.5-2.4,1.6-3.5,2.5-1.4,6-1.7,8.9-1.6,3.9.1,7.9,0,10.7,3.1-4.5,3.3-15.6,1.8-21.2,2Z"/>
      <path class="cls-46" d="M159,929c-.9-8.5-.8-16.5,1.7-24.7,3-9.9,9.1-18.3,18.4-23.2,10.2-5.3,26.2-6,37.2-2.5,2.9.9,6.3,2.5,7.6,5.4,1.7,3.8-2.5,12.1-4,15.7.8,1.7.9,2.2.8,4.1-1.2,1.4-1.7,2-3.6,2.3-6.7.9-15.4-3.8-21.5-1.1-.3.1-.5.2-.8.3-3.9,1.8-9.9,9.6-13.3,9.7-1.1,7-.9,16.1,3.3,22,2.8,3.9,7.1,6.2,11.7,6.9,7.6,1.2,15.5-1.3,22.5-4.3,2.5,4.8,7.9,12.6,7.9,18,0,0,0,.2,0,.3,0,1.7.3,3.9-.2,5.5-.8,2.6-4,4.8-6.4,6-9.5,4.6-26.9,3.4-36.5,0-10-3.5-18.2-10.1-22.7-19.8-2.9-6.2-4.6-14-2.1-20.6Z"/>
      <path class="cls-22" d="M159,929c2.7,12,7.3,22.2,18.1,29.1,11,7,26.2,8,38.7,5.2,4.4-1,7.8-2.3,11.2-5.3,0,1.7.3,3.9-.2,5.5-.8,2.6-4,4.8-6.4,6-9.5,4.6-26.9,3.4-36.5,0-10-3.5-18.2-10.1-22.7-19.8-2.9-6.2-4.6-14-2.1-20.6Z"/>
      <path class="cls-22" d="M181.4,915.1c.1-1.1.4-2.3.7-3.4,1.4-5,4.2-9.8,8.8-12.4,8.7-4.9,19.8-1.9,28.9.5.8,1.7.9,2.2.8,4.1-1.2,1.4-1.7,2-3.6,2.3-6.7.9-15.4-3.8-21.5-1.1-.3.1-.5.2-.8.3-3.9,1.8-9.9,9.6-13.3,9.7Z"/>
      <path class="cls-57" d="M230.7,892.8c0-4.3-.7-9.9,2.1-13.5,3-1.8,53.7-1.9,59.3-.7,1.2.3,1.8.7,2.3,1.7,1.5,2.8,1.5,14.2.4,17.2-.4,1-.7,1.2-1.5,1.9l-2,.4,3.7.4c.4.6.7.8.6,1.5-.5,2.3-1.7,4.2-3.8,5.4-4.6,2.6-12.5.8-17.7,1.2,0,9.1,1.4,46.4-.5,52.6.1.9.3,1.8.3,2.7,0,1.8-.8,3.4-2.1,4.6-2.2,2.1-6,2.7-9,2.7-4,0-8.5-1-11.3-4-1.5-1.6-2.2-3.3-2.1-5.4.1-2.8.9-5.2,2.9-7.1.5-5.2,0-10.8,0-16.1v-30.3c-4.9-.4-9.9.7-14.8.4-2.1-.1-4.5-.6-5.9-2.4-2.7-3.5-1.5-9-1-13.2Z"/>
      <path class="cls-22" d="M230.7,892.8c.3,2.2.5,4.1,2.4,5.6,4.1,3.3,14.3,1.1,19.4,1.3v8.2c-4.9-.4-10,.7-14.9.4-2.1-.1-4.5-.6-5.9-2.4-2.7-3.5-1.5-9-1-13.2Z"/>
      <path class="cls-22" d="M273.7,960.8c.1.9.3,1.8.3,2.7,0,1.8-.8,3.4-2.1,4.6-2.2,2.1-6,2.7-9,2.7-4,0-8.5-1-11.3-4-1.5-1.6-2.2-3.3-2.1-5.4.1-2.8.9-5.2,2.9-7.1,0,2.3-.1,4.4,1.6,6.2,1.8,1.9,5.5,2.7,8.1,2.6,4-.1,8-.5,11.7-2.2Z"/>
      <path class="cls-22" d="M274.2,899.8c5.7-.2,11.5,0,17.2,0l3.7.4c.4.6.7.8.6,1.5-.5,2.3-1.7,4.2-3.8,5.4-4.6,2.6-12.5.8-17.7,1.2v-8.4Z"/>
      <path class="cls-32" d="M638.5,243.4c8.2-2.7,17.1-1.8,24.5,2.4,7.5,4.2,12.8,11.4,14.8,19.7.6,2.5.8,5.1.8,7.6,0,3-.6,5.9-1.5,8.7-3.9,12-14.8,20.4-27.5,21.1-12.6.7-24.4-6.5-29.5-18.1-5.1-11.6-2.6-25.1,6.3-34.1,3.4-3.4,7.5-5.9,12.1-7.4Z"/>
      <path class="cls-9" d="M626.4,250.9c2.6,10.9,7.2,17.5,13.8,26.3,9.3,3.4,16.1,6,26.1,5.2,2.1-.2,4.3-.2,6.2-1.1.8-.4,1.5-.8,2.2-1.2,1.3.5,1.5.8,2.4,1.8-3.9,12-14.8,20.4-27.5,21.1-12.6.7-24.4-6.5-29.5-18.1-5.1-11.6-2.6-25.1,6.3-34.1Z"/>
      <path class="cls-13" d="M626.4,250.9c3.4-3.4,7.5-5.9,12.1-7.4,0,0-.2.2-.3.3-1.6,1.8-6.4,3.7-6.3,6.3,0,1.5,1.9,4.2,3.1,5.2.7,6.6,4,11.7,9.1,15.9,4.7,3.8,10.6,6.7,16.8,6,5.5-.6,12.8-3.9,17.7-3.9,0,3-.6,5.9-1.5,8.7-.9-1-1-1.4-2.4-1.8-.7.4-1.4.8-2.2,1.2-1.9.9-4.1.9-6.2,1.1-10,.8-16.9-1.8-26.1-5.2-6.6-8.8-11.2-15.5-13.8-26.3Z"/>
      <path class="cls-33" d="M635,255.3c1.4.8,2.9,1.2,3.1,3.1.1.8,0,1.8-.1,2.6,9.4,4.3,4.7,5.2,8.9,8.5,4.2,3.3,22.8,4.4,27.8,2.8,2.2-2.2,2.7-3.6,3-6.7.6,2.5.8,5.1.8,7.6-4.8,0-12.2,3.3-17.7,3.9-6.2.7-12.1-2.1-16.8-6-5.1-4.2-8.4-9.3-9.1-15.9Z"/>
      <path class="cls-62" d="M655,248.1c3.2,0,6.6.9,9,3.3,1.2,1.2,1.9,2.9,1.9,4.6,0,2.9-2.2,4.8-4.3,6.6-1.2,0-2.4.1-3.6,0-2.3-.1-4.7-1.7-6.1-3.4-1.3-1.5-1.8-3.4-1.5-5.4.5-2.9,2.4-4.2,4.6-5.7Z"/>
      <path class="cls-7" d="M722.7,796.2c3.9-6.3,8.2-11.4,15.7-13.2,5.4-1.3,11.1-.5,15.9,2.4,5.3,3.2,8.8,8.6,10.2,14.7.3,1.5.5,3.1.6,4.6-.1,1.8-.4,3.5-.8,5.3-1.2,6-4.5,11.3-9.7,14.6-4.9,3.1-10.9,4-16.6,2.8-5.5-1.2-10.3-4.6-13.3-9.4-3.9-6.4-3.9-14.6-2.1-21.8Z"/>
      <path class="cls-41" d="M722.7,796.2l.5.5c7.9,8.2,4.6,17.6,20.5,18.1,7.4.2,15.1-3.3,20.3-8.5.5-.5.8-1,1.1-1.6-.1,1.8-.4,3.5-.8,5.3-1.2,6-4.5,11.3-9.7,14.6-4.9,3.1-10.9,4-16.6,2.8-5.5-1.2-10.3-4.6-13.3-9.4-3.9-6.4-3.9-14.6-2.1-21.8Z"/>
      <path class="cls-9" d="M69.2,676.9c3.5-.4,6.8-.6,10.3-.5,2.6,1,5.4,1.9,7.7,3.6,2.4,2.3,4.3,4.5,6,7.4l1.2,3.9v8.2c-.7,3.6-1.7,6.9-3.9,9.8-3.1,4.1-7.7,6.6-12.8,7.1-5.5.6-11-1-15.3-4.5-4.1-3.4-6.7-8.3-7.2-13.6-.6-6.6,1.8-11.5,5.9-16.5,2.6-2.3,5-3.7,8.2-4.9Z"/>
      <path class="cls-32" d="M69.2,676.9c3.5-.4,6.8-.6,10.3-.5,2.6,1,5.4,1.9,7.7,3.6,2.4,2.3,4.3,4.5,6,7.4l1.2,3.9c-2.8,2.8-5.9,4.2-9.9,4.8-3.9.6-8-.2-11.1-2.6-2.9-2.2-5-5.7-5.4-9.3-.3-3.2-.8-4.6,1.2-7.1Z"/>
      <path class="cls-1" d="M79.5,676.4c2.6,1,5.4,1.9,7.7,3.6,2.4,2.3,4.3,4.5,6,7.4-2.1,1.5-4.7,1.2-7.1.7-.3,0-.5-.1-.8-.1-.4,0-.8,0-1.2-.1.3-1.1.5-2.3.8-3.5-.7-1.9-1.5-2.4-3.1-3.7l-4.6-1.2-.5-2.1,2.8-.9Z"/>
      <path class="cls-62" d="M77.2,679.4l4.6,1.2c1.5,1.3,2.4,1.8,3.1,3.7-.2,1.2-.4,2.3-.8,3.5-1.1.7-2.5,1.5-3.8,1.5-1.6,0-3.4-.6-4.6-1.8-.9-1-1.4-2.3-1.3-3.7.1-2,1.4-3.1,2.8-4.4Z"/>
      <path class="cls-33" d="M61,681.8c2.6-2.3,5-3.7,8.2-4.9-2,2.5-1.6,4-1.2,7.1.4,3.7,2.5,7.1,5.4,9.3,3.1,2.4,7.2,3.2,11.1,2.6,3.9-.6,7-2,9.9-4.8v8.2c-3.9,1.4-7.8,3-11.9,3.2-5.6.3-11.1-1.2-15.3-5.1-4.7-4.4-5.9-9.6-6.2-15.8Z"/>
      <path class="cls-32" d="M238,219h3.3c5.8,1.3,10.7,3.3,14,8.5.3.5.6,1,.8,1.5l.3.9c1.5,2.6,1.3,5.6,1.4,8.5-.8,5.7-2.3,10.1-6.4,14.3l-4.5,2c-3.1.9-6.1,1.3-9.4,1.4-3.3-.7-6.5-1.8-9.2-4-4.1-3.3-6.5-7.9-6.9-13.1-.5-5.4,1.4-10.3,4.8-14.4,3.8-3,7.1-4.5,11.8-5.6Z"/>
      <path class="cls-9" d="M237.5,256.1c-3.3-.7-6.5-1.8-9.2-4-4.1-3.3-6.5-7.9-6.9-13.1-.5-5.4,1.4-10.3,4.8-14.4.9,4.9,1.7,8.6,4.3,12.8,6.8,3,13.6,7.1,21.3,4.2,2.1-.8,4.1-2.1,6-3.3-.8,5.7-2.3,10.1-6.4,14.3l-4.5,2c-3.1.9-6.1,1.3-9.4,1.4Z"/>
      <path class="cls-1" d="M241.3,219c5.8,1.3,10.7,3.3,14,8.5.3.5.6,1,.8,1.5-3.6,1.4-6.2,1.4-9.9.4.5-1.1.7-2,1-3.2-1.2-2.4-3.3-3.2-5.6-4.4l.4-.5-.6-2.3Z"/>
      <path class="cls-62" d="M241.4,221.8c2.3,1.2,4.5,2,5.6,4.4-.2,1.2-.4,2.1-1,3.2-1,.9-1.8,1.2-3,1.7-1.8,0-2.5-.3-3.9-1.4-.7-1.1-1.2-2.1-1.1-3.5.2-2.2,1.7-3.3,3.3-4.5Z"/>
      <path class="cls-23" d="M336.1,700.3l5.4,3.2-.4.6c-1.1,1.6-1.7,3-2.2,4.9-2.7,11.3-10.1,22-14.2,33-2.9,7.2-5.6,14.9-7.7,22.4-2.4,13-9.5,44.6-4.7,56.5.7,6.8,2.6,13.4,5.5,19.6-3.2-.8-6.4-2.1-9.5-3.3-.8-6.7-3.4-12.8-3.8-19.6,0-19,.5-37.2,6.2-55.5,4-20.5,16-43.1,25.4-61.8Z"/>
      <path class="cls-46" d="M121.2,299c.4,0,.6,0,1.1.2,3.3,1,5.8,10.4,7,13.4,4.2,2.6,14.4,4.4,16.5,8.5-2,5.8-12.8,6.2-16.8,10.5-3.4,3.6-3.2,10.5-6.4,14.9-4.2-1.8-5.8-11.7-8.2-15.6-4-2.7-13.9-4.8-15.7-9.3,1.9-3.4,12.9-6.8,16.9-8.7,1.9-4.6,3-9.5,5.7-13.8Z"/>
      <path class="cls-43" d="M120,752.6c.6,0,1.4.2,1.9.5,2.4,1.2,3.9,6.6,4.9,9,3.7,1.9,10,3.4,12.3,6.9-1.2,3.5-8.8,6.1-12,7.8-1.3,3.8-2.5,7.5-4.3,11-5.2-2.1-4-7.6-7.4-11.2-3.5-3.6-8.7-3.6-12.4-6.4l.2-1.2c2.4-2.1,5.7-2.8,8.6-4.1,5.2-2.3,6.5-7.5,8.2-12.4Z"/>
      <path class="cls-46" d="M444.9,220.8c3.2,1.5,4.9,9.2,6.1,12.4,3.9,1.4,10,2.4,12.7,5.6l-.3,1.2c-3.6,2.8-8.3,4.2-12.4,6.2-1.2,4.2-2.3,8.5-4.1,12.5-.2,0-.4,0-.5,0-4.1-1.3-4.1-10.3-6.9-13.4-2.7-3-10.4-3-12.2-6.7,3-3.6,10.2-5.6,14.6-7.3.8-3.5,1.4-7.2,3-10.4Z"/>
      <path class="cls-13" d="M754.4,394.6c2.6,1.7,4.5,7,5.9,9.7,3.3,1.5,7.2,2.9,10,5.3.5.4.3.7.4,1.2-2.9,1.6-6,2.8-8.6,5-4,3.4-3,8.7-6.7,12-2.5-3-3.7-7.5-5.8-11-3.5-1.7-8.2-2.7-10.6-6l.3-1.2c3.1-2.7,7.6-4.1,11.3-5.9,1.2-3.2,2.4-6.2,3.9-9.2Z"/>
      <path class="cls-13" d="M546,265.4c2.5-.6,5.1.3,6.8,2.2,1.7,1.9,2.3,4.6,1.5,7-.8,2.4-2.8,4.2-5.3,4.7-3.8.8-7.5-1.7-8.3-5.5-.8-3.8,1.6-7.5,5.4-8.4Z"/>
      <path class="cls-13" d="M781.5,482.8c2.3-.7,4.9-.2,6.7,1.5s2.5,4.2,1.9,6.6c-.6,2.4-2.5,4.2-4.9,4.8-3.5.9-7.1-1.2-8.1-4.7-1-3.5,1-7.2,4.5-8.3Z"/>
      <path class="cls-13" d="M346.1,229.1c2.3-.7,4.8,0,6.6,1.7,1.7,1.7,2.4,4.2,1.8,6.6-.6,2.3-2.5,4.2-4.8,4.8-3.6.9-7.2-1.2-8.2-4.8-1-3.6,1.1-7.2,4.7-8.2Z"/>
      <path class="cls-13" d="M169.8,815.3c3.5-.8,7,1.4,7.9,4.9.8,3.5-1.4,7.1-4.9,7.9-3.6.9-7.1-1.3-8-4.9-.8-3.6,1.4-7.1,5-7.9Z"/>
      <path class="cls-13" d="M75.5,389.1c2.2-.6,4.6,0,6.2,1.7,1.6,1.6,2.2,4,1.6,6.2-.6,2.2-2.4,3.9-4.6,4.4-3.4.8-6.8-1.2-7.6-4.6-.9-3.4,1.1-6.8,4.5-7.7Z"/>
      <path class="cls-43" d="M696,351.6c3.3-1,6.7.9,7.7,4.1,1,3.3-.9,6.7-4.2,7.7-3.3,1-6.7-.9-7.7-4.2-1-3.3.9-6.7,4.1-7.7Z"/>
      <path class="cls-13" d="M789.5,718.4c2.8-1.1,5.9.3,7,3.1,1.1,2.8-.3,5.9-3,7-2.8,1.1-5.9-.3-7-3-1.1-2.8.3-5.9,3.1-7Z"/>
      <path class="cls-13" d="M681.8,838.4c2.2-1,4.8,0,5.8,2.1,1.1,2.2.2,4.8-1.9,5.9-1.4.8-3.2.7-4.6-.2-1.4-.9-2.2-2.5-2-4.1.1-1.6,1.2-3.1,2.7-3.7Z"/>
      <path class="cls-43" d="M62.8,450.3c1.5-.6,3.2-.3,4.4.7,1.2,1,1.8,2.7,1.4,4.2-.3,1.6-1.5,2.8-3,3.3-2.2.7-4.6-.6-5.3-2.8-.7-2.2.4-4.6,2.5-5.4Z"/>
      <path class="cls-13" d="M74.1,796.6c1.3-.7,2.9-.6,4.2.2,1.3.8,2,2.3,1.9,3.8-.1,1.5-1,2.8-2.4,3.5-2,1-4.5.1-5.5-1.9-1-2-.2-4.5,1.8-5.5Z"/>
      <path class="cls-13" d="M210.5,841.4c1.2-.7,2.6-.7,3.8,0s1.9,1.9,1.8,3.3c0,1.4-.8,2.6-2,3.2-1.8.9-4,.2-4.9-1.5-1-1.7-.4-4,1.3-5Z"/>
      <path class="cls-43" d="M575.4,203.4c1.1-.7,2.5-.7,3.7,0,1.2.6,1.9,1.9,1.9,3.2s-.7,2.5-1.9,3.2c-1.7,1-3.9.4-4.9-1.3-1-1.7-.5-3.9,1.2-4.9Z"/>
      <path class="cls-43" d="M794.6,559.7c1.1-.7,2.5-.8,3.7-.1,1.1.7,1.8,1.9,1.7,3.3-.1,1.3-1,2.5-2.2,2.9-1.6.6-3.4-.1-4.2-1.7-.8-1.5-.3-3.4,1.1-4.4Z"/>
      <path class="cls-13" d="M108.2,841.6c1.1-.7,2.4-.7,3.5,0,1.1.6,1.8,1.8,1.7,3.1,0,1.3-.8,2.4-1.9,2.9-1.6.8-3.6.2-4.5-1.4s-.4-3.6,1.1-4.5Z"/>
      <path class="cls-13" d="M178.4,280.5c1.6-.8,3.6-.2,4.4,1.4.8,1.6.2,3.6-1.4,4.4-1.6.8-3.6.2-4.4-1.4-.8-1.6-.2-3.6,1.4-4.4Z"/>
      <path class="cls-13" d="M316.5,193.7c1.7-.3,3.2.8,3.6,2.4.3,1.6-.7,3.3-2.3,3.7-1.1.3-2.3,0-3.1-.9-.8-.8-1-2-.7-3.1.4-1.1,1.3-1.9,2.4-2.1Z"/>
      <path class="cls-13" d="M803.1,657.7c1.6-.3,3.2.7,3.6,2.3.4,1.6-.5,3.2-2.1,3.7-1.1.3-2.3,0-3.1-.8-.8-.8-1.1-2-.8-3.1.3-1.1,1.3-1.9,2.4-2.1Z"/>
      <path class="cls-13" d="M733.6,312.9c1-.5,2.1-.5,3.1,0s1.5,1.6,1.5,2.7c0,1.1-.7,2.1-1.6,2.6-1.5.8-3.3.2-4.1-1.2-.8-1.5-.3-3.3,1.2-4.1Z"/>
      <path class="cls-13" d="M50.5,576.1c.9-.7,2.2-.7,3.2-.2,1,.5,1.6,1.6,1.6,2.8,0,1.1-.7,2.2-1.8,2.7-1.4.7-3.1.1-3.9-1.2-.8-1.4-.4-3.1.9-4Z"/>
      <path class="cls-13" d="M483.6,177.6c1.6-.2,3,.8,3.3,2.4.3,1.6-.7,3-2.3,3.4-1,.2-2.1-.2-2.8-1-.7-.8-.9-1.9-.5-2.9.4-1,1.2-1.7,2.3-1.9Z"/>
    </g>
    <g id="_Слой_2" data-name="Слой_2">
      <path class="cls-59" d="M486.2,496.8c.4-2.6-.9-5.2-3.5-5.9-2.5-.7-5.6.8-6.2,3.5-.8,3.9-1.1,7.8-.7,11.8.3,2.5,1.7,4.6,4.3,4.9,2.2.3,5.1-1.1,5.5-3.6.5-2.9.8-5.8.9-8.7,0-.7-.1-1.4-.4-2Z"/>
      <path class="cls-59" d="M491.9,565.8c-3.5-1.6-6.9-3.5-9.7-6.2-2.9-2.9-4.8-6.8-6.9-10.3-3.3-5.5-12-.5-8.6,5,2.6,4.3,4.9,8.8,8.5,12.3,3.4,3.3,7.5,5.7,11.7,7.7,5.8,2.7,10.9-5.9,5-8.6Z"/>
    </g>
    <g id="_Слой_3" data-name="Слой_3">
      <path class="cls-61" d="M440.6,372.5c2.4-.4,4.8-.6,7.2-.7,0-2.5-.2-4.7-.3-6.5.4-7.8,1.2-15.9,2.5-23.6,1.6-11.6,6.3-23.7,6.4-35.4,0-1.9.4-3.4,1-5.2l.3-.7-5.9-1.9c-5,20.3-11.6,45-10.9,65.9-.2,2.7-.3,5.4-.3,8.1Z"/>
    </g>
  </g>
</svg>