<svg width="63" height="63" viewBox="0 0 63 63" fill="none" xmlns="http://www.w3.org/2000/svg">
<path d="M57.8309 49.0304C53.2429 49.0304 51.4625 46.3598 51.4625 29.5826C51.4625 16.4348 45.5049 8.21739 35.2331 6.98478V2.73913C35.2331 1.23261 34.0005 0 32.494 0C30.9875 0 29.7549 1.23261 29.7549 2.73913V6.84783C18.7983 7.73804 12.4299 16.0924 12.4299 29.5141C12.4299 46.2913 10.444 48.962 5.78747 48.962C4.34943 49.0304 3.04834 50.0576 3.04834 51.5641C3.04834 53.1391 4.28095 54.1663 5.78747 54.1663H23.5918C23.7973 56.2207 24.4136 58.7543 26.057 60.5348C27.4951 62.1098 29.4125 63 31.6723 63C33.932 63 35.8494 62.0413 37.2875 60.5348C38.9994 58.6859 39.6842 56.2207 39.9581 54.1663H57.8309C59.3375 54.1663 60.5701 53.1391 60.5701 51.5641C60.5701 50.0576 59.3375 49.0304 57.8309 49.0304ZM33.3157 56.837C33.0418 57.1109 32.6309 57.5217 31.6723 57.5217C30.782 57.5217 30.3712 57.1109 30.0973 56.837C29.6179 56.2207 29.2755 55.5359 29.1386 54.1663H31.4668C31.6038 54.1663 31.7407 54.1663 31.8777 54.1663C32.0146 54.1663 32.1516 54.1663 32.2886 54.1663H34.5483C34.2744 55.5359 33.932 56.2207 33.3157 56.837ZM32.2201 48.688C32.0831 48.688 31.9462 48.688 31.8092 48.688C31.6723 48.688 31.5353 48.688 31.3983 48.688H15.2375C17.7712 43.8946 17.7712 36.4304 17.7712 29.4457C17.7712 18.2837 22.6331 12.3946 31.3983 12.3946H32.1516C40.9168 12.3946 45.7788 18.2837 45.7788 29.4457C45.7788 36.4304 45.7788 43.8946 48.3125 48.688H32.2201ZM41.944 24.3783C42.0125 25.6793 40.9853 26.8435 39.6842 26.912C39.6157 26.912 39.6157 26.912 39.5472 26.912C38.3146 26.912 37.219 25.9533 37.1505 24.6522C36.9451 21.5707 34.5483 20.475 34.2744 20.338C33.0418 19.7902 32.494 18.4207 32.9733 17.188C33.4527 15.9554 34.8223 15.4076 36.0549 15.887C36.3288 16.0239 41.6016 18.2152 41.944 24.3783Z" fill="#63EFFF"/>
</svg>
