<svg width="34" height="34" viewBox="0 0 34 34" fill="none" xmlns="http://www.w3.org/2000/svg">
<path d="M27.6255 2.125H9.82861C9.68252 2.125 9.56299 2.24453 9.56299 2.39062V4.25C9.56299 4.39609 9.68252 4.51562 9.82861 4.51562H26.2974V27.3594C26.2974 27.5055 26.4169 27.625 26.563 27.625H28.4224C28.5685 27.625 28.688 27.5055 28.688 27.3594V3.1875C28.688 2.5998 28.2132 2.125 27.6255 2.125ZM23.3755 6.375H6.37549C5.78779 6.375 5.31299 6.8498 5.31299 7.4375V25.0584C5.31299 25.3406 5.42588 25.6096 5.6251 25.8088L11.3792 31.5629C11.4522 31.6359 11.5353 31.6957 11.6249 31.7455V31.8086H11.7644C11.8806 31.8518 12.0034 31.875 12.1296 31.875H23.3755C23.9632 31.875 24.438 31.4002 24.438 30.8125V7.4375C24.438 6.8498 23.9632 6.375 23.3755 6.375ZM11.6216 28.4285L8.76279 25.5664H11.6216V28.4285ZM22.0474 29.4844H13.7466V24.7695C13.7466 24.0357 13.1522 23.4414 12.4185 23.4414H7.70361V8.76562H22.0474V29.4844Z" fill="#63EFFF"/>
</svg>
