<svg width="53" height="49" viewBox="0 0 53 49" fill="none" xmlns="http://www.w3.org/2000/svg">
<path d="M34.8086 33.9027C46.8495 23.2111 56.1787 9.16474 50.7082 3.00387C48.9731 1.05087 46.5502 0.145244 43.9488 0.423494C41.7648 0.662369 39.5205 1.74124 37.2577 3.55249C33.7007 1.70974 29.7305 0.810163 25.7267 0.939766C21.7228 1.06937 17.8191 2.22381 14.3887 4.29274C11.722 5.87162 9.39536 7.96433 7.54379 10.4495C5.69222 12.9346 4.35258 15.7627 3.60258 18.7696C2.43366 23.4014 2.71402 28.2803 4.40583 32.7477C1.61021 35.9056 -0.985918 42.3999 2.24546 46.0381C3.60258 47.5632 5.54508 48.2457 7.88133 48.2457C14.9872 48.2457 25.7523 41.9484 34.8086 33.9027ZM44.5185 5.63937C45.4582 5.55012 46.1775 5.80737 46.7786 6.48724C47.385 7.17237 47.2222 8.97049 46.1171 11.5509C44.9299 9.74408 43.5019 8.10763 41.8725 6.68674C43.0038 5.99899 43.9095 5.70762 44.5185 5.63937ZM7.16208 37.9347C8.32931 39.6277 9.71306 41.1605 11.2781 42.4944C8.58746 43.2897 6.77883 43.2372 6.17246 42.5495C5.60283 41.9116 6.17771 39.7434 7.16208 37.9347ZM49.9758 22.5286C46.7865 27.2457 42.3476 32.165 37.4336 36.5277C32.3568 41.0401 26.7603 44.9487 21.5523 47.558C23.1683 47.9137 24.817 48.1002 26.4716 48.1145C30.7407 48.1099 34.9285 46.9468 38.5886 44.7492C42.3908 42.4983 45.4781 39.2168 47.4933 35.2845C49.5084 31.3522 50.3691 26.9297 49.9758 22.5286Z" fill="#63EFFF"/>
</svg>
