<svg width="69" height="69" viewBox="0 0 69 69" fill="none" xmlns="http://www.w3.org/2000/svg">
<path d="M68.775 2.925C68.625 1.425 67.5 0.300002 66 0.150002C47.025 -1.35 33.45 7.875 24.975 19.425C20.325 17.925 15.3 18.45 10.725 21C6.30004 23.475 2.62504 27.675 0.225038 32.775C-0.299962 33.975 -0.0749616 35.325 0.900038 36.225C1.80004 37.125 3.22504 37.275 4.35004 36.675C9.15004 34.125 14.55 34.65 17.775 37.875L30.975 51.075L31.05 51.15C34.275 54.375 34.8 59.775 32.25 64.575C31.65 65.7 31.875 67.125 32.7 68.025C33.3 68.625 34.05 68.925 34.875 68.925C35.325 68.925 35.775 68.85 36.15 68.625C41.25 66.225 45.45 62.475 47.925 58.125C50.55 53.55 51.075 48.525 49.5 43.8C52.875 41.325 55.95 38.625 58.5 35.625C66.45 26.55 69.9 15.525 68.775 2.925ZM10.05 29.1C13.275 25.95 17.325 24 21.6 24.75C20.4 26.85 19.425 28.95 18.525 31.05C15.975 29.625 13.05 28.95 10.05 29.1ZM39.975 58.95C40.05 55.875 39.375 52.95 38.025 50.4C40.2 49.5 42.3 48.45 44.325 47.325C45.075 51.6 43.2 55.725 39.975 58.95ZM33.975 45.525L23.4 34.95C28.725 20.775 41.925 5.625 63 6C63.675 31.125 42.975 42 33.975 45.525ZM53.4 15.6C54.3 16.5 54.825 17.775 54.825 19.05C54.825 20.325 54.3 21.6 53.4 22.5C52.5 23.4 51.225 23.925 49.95 23.925C48.675 23.925 47.4 23.475 46.5 22.5C45.6 21.525 45.075 20.325 45.075 19.05C45.075 17.775 45.6 16.5 46.5 15.6C47.4 14.7 48.675 14.175 49.95 14.175C51.225 14.175 52.5 14.7 53.4 15.6ZM11.175 46.8C7.72504 50.25 7.57504 57.15 7.57504 58.5C7.57504 60.15 8.92504 61.5 10.575 61.5H10.65C12.225 61.5 18.825 61.275 22.2 57.9C24.3 55.8 24.75 53.625 24.75 52.2C24.75 50.175 23.925 48.225 22.35 46.65C18.6 42.825 13.875 44.025 11.175 46.8ZM18 53.625C17.25 54.375 15.6 54.9 13.875 55.125C14.175 53.4 14.7 51.75 15.375 51.075C15.9 50.55 16.35 50.25 16.875 50.25C17.25 50.25 17.7 50.475 18.15 50.925C18.6 51.375 18.825 51.825 18.825 52.2C18.75 52.65 18.375 53.25 18 53.625Z" fill="#63EFFF"/>
</svg>
