<svg width="66" height="66" viewBox="0 0 66 66" fill="none" xmlns="http://www.w3.org/2000/svg">
<g clip-path="url(#clip0_30_143)">
<path fill-rule="evenodd" clip-rule="evenodd" d="M60.544 46.4948L58.3616 50.3052C57.7588 51.359 56.4256 51.7176 55.3806 51.1104L49.3196 47.5816C46.244 51.0818 42.0838 53.5898 37.3626 54.5578V59.4C37.3626 60.6166 36.388 61.6 35.1824 61.6H30.8176C29.612 61.6 28.6374 60.6166 28.6374 59.4V54.5578C23.9162 53.5898 19.756 51.0818 16.6804 47.5816L10.6194 51.1104C9.57445 51.7176 8.24124 51.359 7.63844 50.3052L5.45605 46.4948C4.85325 45.4432 5.21185 44.0968 6.25465 43.4918L12.3398 39.9454C11.616 37.7586 11.1826 35.4332 11.1826 33C11.1826 30.5668 11.616 28.2436 12.3398 26.0546L6.25465 22.5104C5.21185 21.9032 4.85325 20.559 5.45605 19.5052L7.63844 15.6948C8.24124 14.6432 9.57445 14.2824 10.6194 14.8896L16.6804 18.4184C19.756 14.9182 23.9162 12.4102 28.6374 11.4422V6.6C28.6374 5.3834 29.612 4.4 30.8176 4.4H35.1824C36.388 4.4 37.3626 5.3834 37.3626 6.6V11.4422C42.0838 12.4102 46.244 14.9182 49.3196 18.4184L55.3806 14.8896C56.4256 14.2824 57.7588 14.6432 58.3616 15.6948L60.544 19.5052C61.1468 20.559 60.7882 21.9032 59.7454 22.5104L53.6602 26.0546C54.384 28.2436 54.8174 30.5668 54.8174 33C54.8174 35.4332 54.384 37.7586 53.6602 39.9454L59.7454 43.4918C60.7882 44.0968 61.1468 45.4432 60.544 46.4948ZM63.8176 40.7792L58.707 37.8048C58.993 36.2428 59.1822 34.6478 59.1822 33C59.1822 31.3544 58.993 29.7572 58.707 28.1952L63.8176 25.2208C65.9054 24.0064 66.6182 21.3136 65.4126 19.2104L61.05 11.5896C59.8466 9.48641 57.1758 8.76262 55.0902 9.97922L49.9268 12.9822C47.5156 10.9142 44.7744 9.22238 41.7274 8.13338V4.4C41.7274 1.9712 39.7738 0 37.3626 0H28.6374C26.2262 0 24.2726 1.9712 24.2726 4.4V8.13338C21.2256 9.22238 18.4844 10.9142 16.0732 12.9822L10.9098 9.97922C8.82424 8.76262 6.15344 9.48641 4.95004 11.5896L0.587439 19.2104C-0.618161 21.3136 0.0968356 24.0064 2.18244 25.2208L7.29305 28.1952C7.00705 29.7572 6.81784 31.3544 6.81784 33C6.81784 34.6478 7.00705 36.2428 7.29305 37.8048L2.18244 40.7792C0.0968356 41.9936 -0.618161 44.6864 0.587439 46.7896L4.95004 54.4104C6.15344 56.5136 8.82424 57.2374 10.9098 56.0208L16.0732 53.0178C18.4844 55.0858 21.2256 56.7798 24.2726 57.8666V61.6C24.2726 64.0288 26.2262 66 28.6374 66H37.3626C39.7738 66 41.7274 64.0288 41.7274 61.6V57.8666C44.7744 56.7798 47.5156 55.0858 49.9268 53.0178L55.0902 56.0208C57.1758 57.2374 59.8466 56.5136 61.05 54.4104L65.4126 46.7896C66.6182 44.6864 65.9054 41.9936 63.8176 40.7792ZM33 39.6C29.3854 39.6 26.455 36.6454 26.455 33C26.455 29.3568 29.3854 26.4 33 26.4C36.6146 26.4 39.545 29.3568 39.545 33C39.545 36.6454 36.6146 39.6 33 39.6ZM33 22C26.9742 22 22.0924 26.9236 22.0924 33C22.0924 39.0764 26.9742 44 33 44C39.0258 44 43.9098 39.0764 43.9098 33C43.9098 26.9236 39.0258 22 33 22Z" fill="#63EFFF"/>
</g>
<defs>
<clipPath id="clip0_30_143">
<rect width="66" height="66" fill="white"/>
</clipPath>
</defs>
</svg>
