<svg width="33" height="33" viewBox="0 0 33 33" fill="none" xmlns="http://www.w3.org/2000/svg">
<path d="M30.7625 14.6761C31.2644 14.1732 31.4405 13.4302 31.2178 12.755C30.9951 12.0797 30.4107 11.5877 29.7077 11.4827L21.831 10.3055C21.7312 10.2904 21.6455 10.2339 21.6054 10.1562L18.1907 2.74377C17.8832 2.0756 17.2155 1.64805 16.48 1.64805C15.7445 1.64805 15.0768 2.07607 14.7689 2.74377L11.3555 10.1567C11.315 10.2344 11.2293 10.2909 11.13 10.3055L3.25277 11.4827C2.54976 11.5877 1.96541 12.0797 1.74269 12.755C1.51949 13.4302 1.6956 14.1732 2.19802 14.6766L7.96996 20.4584C8.01846 20.5069 8.04247 20.5662 8.03964 20.6256L6.1604 29.0174C5.99559 29.7529 6.28518 30.5153 6.89637 30.956C7.2241 31.1929 7.61115 31.3125 7.99868 31.3125C8.33347 31.3125 8.66873 31.2235 8.9682 31.0441L16.3383 26.6202C16.383 26.6 16.4315 26.5896 16.48 26.5896C16.5327 26.5896 16.5864 26.6019 16.6335 26.6254L24.441 31.0662C24.7311 31.2315 25.0522 31.3125 25.3719 31.3125C25.7816 31.3125 26.1889 31.1792 26.527 30.9169C27.1278 30.4508 27.3896 29.6682 27.1895 28.9336L24.9208 20.6063C24.9237 20.5531 24.9482 20.5008 24.9896 20.4589L30.7625 14.6761ZM23.0651 20.9627L25.3724 29.4294L17.5376 24.9731C17.208 24.7956 16.844 24.7066 16.48 24.7066C16.117 24.7066 15.753 24.7956 15.4234 24.9731L7.99868 29.4294L9.89488 20.9627C10.0074 20.2941 9.78752 19.6127 9.30299 19.1282L3.53153 13.3459L11.4083 12.1687C12.1273 12.0614 12.7474 11.6093 13.0568 10.9656L16.48 3.53153L19.9042 10.9656C20.2135 11.6093 20.8327 12.0614 21.5527 12.1687L29.4294 13.3459L23.658 19.1277C23.1734 19.6123 22.9535 20.2941 23.0651 20.9627Z" fill="#63EFFF"/>
<path d="M15.9187 9.40376C15.6898 9.27945 15.404 9.3628 15.2797 9.59164L13.4626 12.9207C13.2992 13.2602 12.9734 13.497 12.5906 13.554L9.4136 14.0287C9.15604 14.0673 8.97899 14.3069 9.01713 14.564C9.05198 14.7976 9.25304 14.9652 9.48235 14.9652C9.50542 14.9652 9.52897 14.9638 9.55204 14.96L12.729 14.4854C13.4207 14.3818 14.0117 13.9496 14.2998 13.3501L16.1061 10.0423C16.2309 9.81436 16.1466 9.52854 15.9187 9.40376Z" fill="#63EFFF"/>
<path d="M16.6298 7.16666C16.392 7.05647 16.1133 7.16148 16.0054 7.39738L15.664 8.13853C15.5553 8.37444 15.6584 8.65414 15.8948 8.76291C15.9588 8.79257 16.0252 8.80623 16.0911 8.80623C16.2696 8.80623 16.44 8.70452 16.5191 8.53218L16.8605 7.79103C16.9698 7.55465 16.8662 7.27543 16.6298 7.16666Z" fill="#63EFFF"/>
</svg>
